<?xml version="1.0" encoding="UTF-8"?>
<!DOCTYPE svg PUBLIC "-//W3C//DTD SVG 1.1//EN" "http://www.w3.org/Graphics/SVG/1.1/DTD/svg11.dtd">
<!-- Creator: CorelDRAW X7 -->
<svg xmlns="http://www.w3.org/2000/svg" xml:space="preserve" width="923px" height="131px" version="1.1" style="shape-rendering:geometricPrecision; text-rendering:geometricPrecision; image-rendering:optimizeQuality; fill-rule:evenodd; clip-rule:evenodd"
viewBox="0 0 3356 478"
 xmlns:xlink="http://www.w3.org/1999/xlink">
 <defs>
  <style type="text/css">
   <![CDATA[
    .str1 {stroke:white;stroke-width:16.1111}
    .str3 {stroke:#2F70C1;stroke-width:10.7407}
    .str0 {stroke:white;stroke-width:10.7407}
    .str2 {stroke:white;stroke-width:2.14814}
    .fil0 {fill:none}
    .fil2 {fill:#2F70C1}
    .fil1 {fill:white}
    .fil4 {fill:white;fill-rule:nonzero}
    .fil3 {fill:url(#id0);fill-rule:nonzero}
   ]]>
  </style>
  <linearGradient id="id0" gradientUnits="userSpaceOnUse" x1="3351.13" y1="235.72" x2="548.442" y2="235.72">
   <stop offset="0" style="stop-opacity:1; stop-color:#2F70C1"/>
   <stop offset="1" style="stop-opacity:1; stop-color:white"/>
  </linearGradient>
 </defs>
 <g id="Layer_x0020_2">
  <metadata id="CorelCorpID_0Corel-Layer"/>
  <rect class="fil0 str0" x="103" y="221" width="238" height="187"/>
  <polygon class="fil0 str0" points="53,221 222,52 398,221 "/>
  <path class="fil0 str1" d="M441 407l0 19c0,8 -7,15 -15,15l-28 0m-344 0l-31 0c-8,0 -15,-7 -15,-15l0 -403c0,-8 7,-15 15,-15l403 0c8,0 15,7 15,15l0 30"/>
  <rect class="fil0 str0" x="169" y="251" width="107" height="156"/>
  <rect class="fil1 str2" x="129" y="408" width="14.3689" height="14.3689"/>
  <rect class="fil1 str2" x="215" y="408" width="14.3689" height="14.3689"/>
  <rect class="fil1 str2" x="301" y="408" width="14.3689" height="14.3689"/>
  <polygon class="fil2 str3" points="441,365 453,340 454,339 454,83 428,83 428,339 430,340 "/>
  <rect class="fil0 str0" x="54" y="408" width="343.902" height="63.8127" rx="32" ry="32"/>
  <path class="fil3" d="M3351 343c0,1 0,2 -1,3 0,1 -1,2 -3,2 -1,1 -4,1 -7,1 -3,1 -8,1 -13,1 -5,0 -9,0 -12,-1 -3,0 -5,0 -6,-1 -2,-1 -3,-1 -4,-2 -1,-1 -1,-2 -2,-4l-19 -49c-3,-5 -5,-10 -7,-14 -3,-5 -5,-8 -8,-11 -3,-3 -6,-5 -9,-7 -4,-1 -8,-2 -13,-2l-14 0 0 84c0,1 0,2 -1,3 -1,1 -2,1 -4,2 -1,0 -4,1 -6,1 -3,1 -7,1 -11,1 -4,0 -8,0 -11,-1 -3,0 -5,-1 -7,-1 -1,-1 -3,-1 -3,-2 -1,-1 -1,-2 -1,-3l0 -199c0,-5 1,-9 4,-11 2,-2 5,-3 9,-3l57 0c5,0 10,0 14,0 3,1 7,1 10,1 9,1 17,4 24,7 7,3 13,7 18,11 5,5 8,11 11,18 2,7 4,14 4,23 0,7 -1,14 -3,20 -2,6 -5,11 -8,16 -4,5 -8,9 -14,12 -5,4 -11,7 -18,9 4,1 7,3 9,6 3,2 6,5 9,8 2,3 5,7 7,11 2,4 4,9 6,14l19 43c2,4 3,7 3,9 1,2 1,4 1,5zm-57 -149c0,-7 -2,-13 -5,-18 -4,-5 -9,-8 -16,-10 -3,-1 -5,-1 -8,-2 -3,0 -7,0 -12,0l-20 0 0 62 23 0c6,0 12,-1 16,-2 5,-2 9,-4 12,-7 3,-3 6,-6 7,-10 2,-4 3,-8 3,-13zm-2603 89c0,12 -2,22 -6,30 -4,9 -10,16 -17,22 -8,6 -16,10 -26,13 -10,3 -20,5 -32,5 -7,0 -14,-1 -21,-2 -6,-2 -12,-3 -17,-5 -5,-2 -9,-4 -12,-5 -4,-2 -6,-4 -8,-6 -1,-1 -2,-3 -3,-6 0,-3 -1,-7 -1,-12 0,-3 1,-6 1,-9 0,-2 0,-4 1,-5 0,-2 1,-3 2,-4 1,0 2,0 3,0 1,0 4,0 7,2 2,2 6,4 11,7 4,2 10,4 16,6 6,2 13,3 22,3 5,0 10,-1 14,-2 4,-2 8,-3 11,-6 3,-2 5,-5 7,-9 2,-3 2,-7 2,-11 0,-5 -1,-9 -4,-13 -2,-3 -6,-7 -10,-9 -5,-3 -10,-6 -15,-8 -6,-3 -11,-5 -17,-8 -6,-3 -12,-6 -17,-9 -6,-3 -11,-8 -15,-12 -4,-5 -8,-11 -11,-17 -2,-7 -4,-15 -4,-24 0,-10 2,-19 6,-27 4,-8 9,-15 16,-20 6,-5 14,-9 23,-12 9,-3 19,-4 29,-4 5,0 10,1 15,1 5,1 10,2 15,4 4,1 8,2 12,4 3,2 5,3 7,4 1,1 1,2 2,3 0,1 1,2 1,3 0,2 0,3 0,5 1,2 1,5 1,8 0,3 0,6 -1,8 0,2 0,4 -1,5 0,2 -1,3 -1,4 -1,0 -2,1 -3,1 -1,0 -3,-1 -6,-3 -3,-1 -6,-3 -10,-5 -4,-2 -9,-3 -14,-5 -5,-1 -11,-2 -17,-2 -5,0 -9,0 -13,2 -3,1 -6,2 -9,4 -2,3 -4,5 -5,8 -1,3 -2,6 -2,9 0,5 2,9 4,13 3,3 6,7 11,9 4,3 9,6 15,8 6,3 11,5 17,8 6,2 12,6 18,9 5,3 10,8 15,12 4,5 8,11 10,17 3,7 4,14 4,23zm82 41c0,11 -2,18 -6,21 -4,4 -10,6 -20,6 -9,0 -16,-2 -19,-6 -4,-3 -6,-10 -6,-20 0,-10 2,-17 6,-21 4,-4 10,-5 20,-5 9,0 16,1 19,5 4,3 6,10 6,20zm299 19c0,1 0,2 -1,3 0,1 -1,1 -3,2 -2,0 -4,1 -7,1 -2,1 -6,1 -10,1 -4,0 -7,0 -10,-1 -3,0 -5,-1 -7,-1 -1,-1 -2,-1 -3,-2 -1,-1 -1,-2 -1,-3l0 -178 0 0 -63 177c-1,2 -2,3 -3,4 -1,1 -2,2 -4,2 -1,1 -4,1 -6,2 -3,0 -6,0 -10,0 -4,0 -7,0 -10,-1 -3,0 -5,0 -7,-1 -1,-1 -3,-1 -4,-2 -1,-1 -1,-2 -2,-4l-61 -177 0 0 0 178c0,1 0,2 -1,3 -1,1 -2,1 -4,2 -1,0 -3,1 -6,1 -3,1 -6,1 -10,1 -4,0 -8,0 -11,-1 -2,0 -4,-1 -6,-1 -2,-1 -3,-1 -3,-2 -1,-1 -1,-2 -1,-3l0 -195c0,-6 1,-10 4,-13 3,-4 7,-5 12,-5l29 0c6,0 10,0 14,1 4,1 7,3 10,4 2,2 5,5 6,8 2,3 4,7 5,12l47 130 1 0 49 -130c1,-4 3,-8 4,-12 2,-3 4,-5 7,-7 2,-2 5,-4 8,-5 3,-1 7,-1 11,-1l30 0c3,0 5,0 8,1 2,1 4,2 5,4 1,1 2,3 3,5 1,2 1,5 1,8l0 195zm95 -19c0,11 -1,18 -5,21 -4,4 -10,6 -20,6 -9,0 -16,-2 -19,-6 -4,-3 -6,-10 -6,-20 0,-10 2,-17 6,-21 3,-4 10,-5 20,-5 9,0 16,1 19,5 4,3 5,10 5,20zm300 19c0,1 0,2 -1,3 0,1 -1,1 -3,2 -2,0 -4,1 -7,1 -2,1 -6,1 -10,1 -4,0 -7,0 -10,-1 -3,0 -5,-1 -7,-1 -1,-1 -2,-1 -3,-2 -1,-1 -1,-2 -1,-3l0 -178 0 0 -63 177c-1,2 -2,3 -3,4 -1,1 -2,2 -4,2 -2,1 -4,1 -6,2 -3,0 -6,0 -10,0 -4,0 -7,0 -10,-1 -3,0 -5,0 -7,-1 -1,-1 -3,-1 -4,-2 -1,-1 -2,-2 -2,-4l-61 -177 0 0 0 178c0,1 -1,2 -1,3 -1,1 -2,1 -4,2 -1,0 -4,1 -6,1 -3,1 -6,1 -10,1 -4,0 -8,0 -11,-1 -2,0 -5,-1 -6,-1 -2,-1 -3,-1 -4,-2 0,-1 0,-2 0,-3l0 -195c0,-6 1,-10 4,-13 3,-4 7,-5 12,-5l29 0c6,0 10,0 14,1 4,1 7,3 9,4 3,2 5,5 7,8 2,3 4,7 5,12l47 130 1 0 49 -130c1,-4 3,-8 4,-12 2,-3 4,-5 6,-7 3,-2 6,-4 9,-5 3,-1 7,-1 11,-1l30 0c3,0 5,0 8,1 2,1 4,2 5,4 1,1 2,3 3,5 1,2 1,5 1,8l0 195zm245 -106c0,18 -3,34 -7,48 -5,15 -11,27 -20,37 -9,10 -20,17 -33,23 -13,5 -29,8 -46,8 -17,0 -32,-3 -44,-7 -13,-5 -24,-11 -32,-21 -8,-9 -15,-20 -19,-34 -4,-14 -6,-31 -6,-50 0,-18 2,-34 6,-48 5,-14 12,-26 21,-36 8,-10 19,-18 32,-23 14,-5 29,-8 46,-8 17,0 31,2 44,7 13,4 23,11 32,20 8,9 15,21 19,35 4,14 7,30 7,49zm-47 2c0,-11 -1,-22 -3,-31 -2,-10 -5,-18 -9,-24 -4,-7 -10,-12 -17,-16 -8,-4 -17,-5 -27,-5 -11,0 -20,2 -28,6 -7,4 -13,9 -17,16 -5,7 -8,15 -10,24 -2,9 -3,19 -3,29 0,12 1,23 3,33 2,9 5,17 9,24 4,7 10,12 17,16 8,3 17,5 28,5 10,0 20,-2 27,-6 7,-4 13,-10 18,-17 4,-7 7,-15 9,-24 2,-10 3,-19 3,-30zm264 94c0,3 0,5 -1,7 -1,2 -2,4 -4,5 -1,2 -3,2 -5,3 -2,1 -4,1 -6,1l-19 0c-4,0 -8,0 -11,-1 -2,-1 -5,-2 -8,-4 -2,-2 -4,-5 -7,-9 -2,-3 -4,-8 -7,-14l-54 -102c-4,-6 -7,-13 -10,-20 -3,-7 -6,-14 -9,-20l0 0c0,8 1,16 1,24 0,8 0,16 0,25l0 114c0,2 0,3 -1,4 0,0 -1,1 -3,2 -1,0 -4,1 -6,1 -3,1 -6,1 -10,1 -4,0 -7,0 -10,-1 -3,0 -5,-1 -6,-1 -2,-1 -3,-2 -3,-2 -1,-1 -1,-2 -1,-4l0 -196c0,-5 2,-9 5,-12 3,-3 7,-4 11,-4l24 0c4,0 8,0 11,1 3,1 5,2 8,4 2,1 4,4 6,7 2,3 4,6 6,11l43 80c2,5 5,9 7,14 3,5 5,9 7,14 2,5 5,9 7,14 2,4 4,9 6,13l0 0c0,-7 0,-16 -1,-24 0,-9 0,-17 0,-25l0 -102c0,-2 1,-3 1,-3 1,-1 2,-2 4,-3 1,-1 3,-1 6,-1 2,-1 6,-1 10,-1 4,0 7,0 10,1 2,0 4,0 6,1 1,1 2,2 3,3 0,0 0,1 0,3l0 196zm193 -185c0,4 0,6 0,9 0,2 -1,4 -1,5 -1,2 -2,3 -2,3 -1,1 -2,1 -3,1l-55 0 0 177c0,1 0,2 -1,3 -1,1 -2,1 -4,2 -1,0 -4,1 -6,1 -3,1 -7,1 -11,1 -4,0 -8,0 -11,-1 -3,0 -5,-1 -7,-1 -1,-1 -3,-1 -3,-2 -1,-1 -2,-2 -2,-3l0 -177 -54 0c-1,0 -2,0 -3,-1 -1,0 -2,-1 -2,-3 -1,-1 -1,-3 -1,-5 -1,-3 -1,-5 -1,-9 0,-3 0,-6 1,-8 0,-3 0,-5 1,-6 0,-1 1,-2 2,-3 1,-1 2,-1 3,-1l154 0c1,0 2,0 3,1 0,1 1,2 2,3 0,1 1,3 1,6 0,2 0,5 0,8zm16 140c0,-7 1,-13 3,-18 2,-6 5,-11 8,-16 4,-5 9,-10 14,-14 6,-5 12,-9 19,-13 -4,-6 -7,-10 -10,-15 -3,-5 -6,-9 -8,-13 -2,-4 -3,-8 -4,-12 -1,-4 -2,-8 -2,-11 0,-8 2,-16 5,-22 2,-7 7,-13 13,-19 6,-5 13,-9 23,-12 9,-3 20,-4 33,-4 12,0 22,1 30,3 9,3 16,6 22,10 5,4 9,9 12,15 3,6 4,13 4,20 0,7 -1,13 -4,19 -2,6 -5,11 -10,17 -5,5 -11,10 -17,15 -7,4 -16,9 -25,14 3,4 6,7 10,11 4,4 8,8 12,12 4,4 8,8 12,11 4,4 8,8 12,11 1,-2 3,-5 4,-8 1,-3 2,-6 3,-9 1,-3 2,-7 2,-10 1,-3 1,-7 1,-10l0 -5c0,-2 0,-3 1,-3 0,-1 1,-2 2,-3 2,0 4,-1 6,-1 3,0 7,0 11,0 4,0 7,0 9,0 3,0 5,0 7,1 1,0 2,1 3,2 0,1 1,2 1,4l0 5c0,6 -1,11 -1,17 -1,5 -2,11 -4,16 -1,5 -3,10 -6,15 -2,5 -4,9 -7,13 4,3 7,6 10,8 3,2 5,4 7,5 2,1 4,2 6,2 1,1 2,1 3,1 1,0 2,0 3,0 1,0 2,0 3,1 1,1 1,2 1,4 1,2 1,5 1,9 0,5 0,8 0,10 0,3 -1,4 -1,5 0,2 -1,2 -2,3 -1,1 -3,2 -5,2 -2,1 -5,1 -8,1 -3,0 -5,0 -8,-1 -2,0 -5,-2 -9,-3 -3,-2 -7,-4 -12,-7 -5,-3 -10,-7 -16,-11 -5,3 -11,7 -17,9 -5,3 -11,6 -17,8 -6,2 -13,3 -19,4 -7,1 -14,2 -21,2 -8,0 -15,-1 -22,-2 -7,-1 -13,-3 -19,-5 -6,-3 -12,-6 -17,-9 -5,-4 -10,-8 -13,-12 -4,-5 -7,-11 -9,-17 -2,-6 -3,-13 -3,-20zm65 -115c0,3 0,5 1,8 1,2 2,5 4,8 1,3 3,6 5,9 2,3 4,6 7,10 7,-4 12,-7 17,-10 4,-3 8,-6 11,-9 2,-3 4,-6 5,-9 1,-3 2,-6 2,-9 0,-2 -1,-5 -2,-7 -1,-3 -2,-5 -4,-7 -2,-1 -5,-3 -8,-4 -3,-1 -7,-1 -11,-1 -5,0 -9,0 -12,1 -4,2 -7,3 -9,5 -2,2 -3,4 -4,7 -1,3 -2,5 -2,8zm-19 112c0,5 1,10 3,14 2,4 4,7 8,10 3,3 7,6 12,7 5,2 11,3 18,3 3,0 6,-1 10,-1 3,-1 6,-2 10,-3 3,-1 6,-2 9,-4 3,-1 5,-3 8,-5 -5,-4 -11,-8 -16,-13 -5,-4 -10,-9 -15,-14 -4,-4 -9,-9 -14,-13 -4,-5 -8,-9 -11,-13 -4,2 -8,5 -10,7 -3,3 -5,6 -7,8 -1,3 -3,6 -3,9 -1,3 -2,5 -2,8zm390 -49c0,20 -3,37 -8,52 -5,14 -13,25 -22,35 -10,9 -22,15 -36,19 -14,5 -31,7 -50,7l-53 0c-3,0 -6,-1 -9,-4 -2,-2 -4,-5 -4,-10l0 -191c0,-5 2,-9 4,-11 3,-2 6,-3 9,-3l57 0c19,0 36,2 49,7 14,4 25,11 34,20 10,9 17,20 22,33 4,14 7,29 7,46zm-46 2c0,-11 -1,-20 -4,-29 -2,-9 -6,-17 -11,-23 -6,-7 -13,-12 -21,-16 -8,-3 -19,-5 -33,-5l-22 0 0 148 23 0c12,0 22,-1 30,-4 9,-3 16,-8 21,-15 6,-6 10,-14 13,-23 3,-10 4,-21 4,-33zm212 93c0,4 0,6 -1,8 0,3 0,4 -1,6 0,1 -1,2 -2,3 -1,0 -2,1 -3,1l-109 0c-4,0 -7,-1 -10,-4 -2,-2 -4,-5 -4,-10l0 -191c0,-5 2,-9 4,-11 3,-2 6,-3 10,-3l109 0c1,0 2,0 2,1 1,0 2,1 2,3 1,1 1,3 2,5 0,2 0,5 0,9 0,3 0,5 0,8 -1,2 -1,4 -2,5 0,1 -1,2 -2,3 0,1 -1,1 -2,1l-78 0 0 53 65 0c1,0 2,1 3,1 1,1 2,2 2,3 1,1 1,3 2,5 0,2 0,5 0,8 0,4 0,6 0,8 -1,3 -1,4 -2,6 0,1 -1,2 -2,2 -1,1 -2,1 -3,1l-65 0 0 62 78 0c1,0 2,0 3,1 1,0 2,1 2,3 1,1 1,3 1,5 1,2 1,5 1,8zm185 -15c0,2 0,5 0,7 0,2 0,4 -1,5 0,1 0,3 -1,4 -1,1 -1,2 -3,3 -1,1 -3,3 -7,5 -3,2 -8,4 -13,6 -5,2 -11,3 -17,4 -7,2 -14,2 -22,2 -15,0 -28,-2 -40,-7 -12,-4 -23,-11 -31,-20 -9,-10 -15,-21 -20,-35 -4,-14 -6,-30 -6,-48 0,-18 2,-35 7,-49 5,-15 12,-27 21,-37 9,-9 19,-17 32,-22 12,-5 26,-7 41,-7 6,0 12,0 18,1 5,1 10,2 15,4 5,2 9,4 13,6 4,2 7,4 8,5 2,2 3,3 3,4 1,1 1,2 2,4 0,2 0,3 0,6 1,2 1,4 1,7 0,4 0,7 -1,9 0,2 0,4 -1,6 0,1 -1,2 -2,3 -1,1 -2,1 -3,1 -1,0 -3,-1 -6,-3 -3,-2 -6,-4 -10,-7 -4,-2 -9,-4 -15,-6 -5,-2 -12,-3 -20,-3 -9,0 -16,2 -23,5 -7,4 -13,9 -18,15 -4,7 -8,15 -10,24 -3,10 -4,20 -4,32 0,13 1,24 4,33 2,10 6,17 11,23 5,6 11,11 18,14 7,3 15,4 23,4 8,0 15,0 21,-2 5,-2 10,-4 14,-6 4,-3 8,-5 10,-6 3,-2 5,-3 7,-3 1,0 2,0 2,0 1,1 2,2 2,3 0,2 1,3 1,6 0,2 0,6 0,10zm226 -79c0,18 -2,34 -6,48 -5,15 -12,27 -21,37 -8,10 -19,17 -33,23 -13,5 -28,8 -45,8 -17,0 -32,-3 -45,-7 -12,-5 -23,-11 -31,-21 -9,-9 -15,-20 -19,-34 -4,-14 -7,-31 -7,-50 0,-18 3,-34 7,-48 5,-14 11,-26 20,-36 9,-10 20,-18 33,-23 13,-5 29,-8 46,-8 17,0 31,2 44,7 12,4 23,11 32,20 8,9 14,21 19,35 4,14 6,30 6,49zm-46 2c0,-11 -1,-22 -3,-31 -2,-10 -5,-18 -9,-24 -5,-7 -10,-12 -18,-16 -7,-4 -16,-5 -27,-5 -10,0 -20,2 -27,6 -7,4 -13,9 -18,16 -4,7 -7,15 -9,24 -2,9 -3,19 -3,29 0,12 1,23 3,33 2,9 5,17 9,24 4,7 10,12 17,16 7,3 16,5 27,5 11,0 20,-2 28,-6 7,-4 13,-10 17,-17 5,-7 8,-15 10,-24 2,-10 3,-19 3,-30z"/>
  <path class="fil4" d="M3063 455c0,0 0,0 0,1 0,0 0,0 0,0 -1,0 -1,0 -1,0 -1,0 -1,0 -2,0 0,0 -1,0 -1,0 -1,0 -1,0 -1,0 -1,0 -1,0 -1,0 0,-1 0,-1 0,-1l0 -5c-2,2 -4,4 -7,5 -2,1 -4,2 -7,2 -3,0 -6,-1 -8,-2 -2,-1 -3,-3 -5,-4 -1,-2 -2,-5 -2,-7 -1,-3 -1,-6 -1,-9 0,-3 0,-6 1,-9 1,-3 2,-5 3,-7 2,-2 3,-3 5,-4 3,-2 5,-2 8,-2 2,0 4,0 6,1 2,2 4,3 6,5l0 -23c0,0 0,-1 0,-1 0,0 1,0 1,0 0,0 0,0 1,0 0,-1 1,-1 2,-1 0,0 1,0 2,1 0,0 0,0 1,0 0,0 0,0 0,0 0,0 0,1 0,1l0 59zm-7 -28c-2,-3 -4,-5 -6,-6 -2,-1 -3,-2 -5,-2 -2,0 -4,1 -5,2 -2,0 -3,2 -3,3 -1,2 -2,3 -2,5 -1,2 -1,4 -1,6 0,2 0,4 1,6 0,1 1,3 1,5 1,1 2,2 3,3 2,1 3,2 5,2 1,0 2,-1 3,-1 1,0 2,-1 3,-1 1,-1 2,-2 3,-3 1,-1 2,-2 3,-3l0 -16zm51 28c0,0 0,1 0,1 0,0 -1,0 -1,0 -1,0 -1,0 -2,0 -1,0 -1,0 -2,0 0,0 -1,0 -1,0 0,0 0,-1 0,-1l0 -4c-2,2 -4,3 -6,4 -2,1 -4,2 -7,2 -2,0 -4,0 -6,-1 -1,0 -3,-1 -4,-2 -1,-1 -2,-3 -3,-4 0,-2 -1,-3 -1,-5 0,-3 1,-5 2,-6 1,-2 2,-3 4,-4 1,-1 3,-2 6,-3 2,0 5,-1 8,-1l6 0 0 -3c0,-1 0,-3 -1,-4 0,-1 -1,-2 -1,-3 -1,-1 -2,-1 -3,-2 -1,0 -3,0 -4,0 -2,0 -4,0 -5,1 -2,0 -3,0 -4,1 -1,0 -2,1 -3,1 0,1 -1,1 -1,1 -1,0 -1,0 -1,0 0,0 0,0 0,-1 0,0 -1,0 -1,-1 0,0 0,0 0,-1 0,-1 0,-1 0,-2 1,0 1,0 1,-1 1,0 1,-1 2,-1 1,-1 2,-1 4,-2 1,0 2,0 4,-1 1,0 3,0 4,0 3,0 6,0 8,1 2,1 3,2 5,3 1,1 2,3 2,4 1,2 1,5 1,7l0 27zm-7 -18l-6 0c-2,0 -4,0 -6,0 -1,1 -2,1 -3,2 -1,0 -2,1 -3,2 0,1 0,2 0,3 0,2 0,4 2,5 1,2 3,2 5,2 2,0 4,0 6,-1 1,-1 3,-3 5,-5l0 -8zm57 -3c0,4 0,7 -1,10 -1,3 -2,5 -3,7 -2,2 -3,3 -6,4 -2,1 -4,2 -7,2 -1,0 -2,0 -3,0 -1,-1 -2,-1 -3,-2 -1,0 -2,-1 -3,-1 -1,-1 -2,-2 -3,-3l0 20c0,0 0,0 0,0 0,1 -1,1 -1,1 0,0 0,0 -1,0 0,0 -1,0 -2,0 -1,0 -1,0 -2,0 0,0 0,0 -1,0 0,0 0,0 0,-1 0,0 0,0 0,0l0 -56c0,0 0,-1 0,-1 0,0 0,0 0,0 0,0 1,0 1,0 1,0 1,0 2,0 0,0 1,0 1,0 1,0 1,0 1,0 1,0 1,0 1,0 0,0 0,1 0,1l0 5c1,-1 2,-2 4,-3 1,-1 2,-2 3,-2 1,-1 2,-1 3,-2 2,0 3,0 4,0 3,0 6,1 8,2 2,1 3,2 5,4 1,2 2,4 2,7 1,3 1,5 1,8zm-7 1c0,-2 0,-4 -1,-6 0,-2 -1,-3 -1,-5 -1,-1 -2,-3 -3,-3 -2,-1 -3,-2 -5,-2 -1,0 -2,0 -3,1 -1,0 -2,0 -3,1 -1,1 -2,1 -3,2 -1,1 -2,3 -3,4l0 16c2,2 4,4 6,6 1,1 3,2 5,2 2,0 4,-1 5,-2 1,-1 2,-2 3,-3 1,-2 2,-3 2,-5 0,-2 1,-4 1,-6zm39 17c0,1 0,2 -1,2 0,1 0,1 0,1 0,0 -1,1 -1,1 -1,0 -1,0 -2,0 0,0 -1,1 -2,1 0,0 -1,0 -2,0 -2,0 -4,0 -5,-1 -1,-1 -3,-1 -4,-3 -1,-1 -1,-2 -2,-4 0,-1 0,-3 0,-6l0 -23 -6 0c0,0 -1,0 -1,-1 0,0 0,-1 0,-2 0,-1 0,-1 0,-1 0,-1 0,-1 0,-1 0,-1 0,-1 0,-1 1,0 1,0 1,0l6 0 0 -10c0,0 0,0 0,0 0,0 0,-1 0,-1 1,0 1,0 2,0 0,0 1,0 1,0 1,0 2,0 2,0 1,0 1,0 1,0 1,0 1,1 1,1 0,0 0,0 0,0l0 10 10 0c0,0 1,0 1,0 0,0 0,0 0,1 0,0 1,0 1,1 0,0 0,0 0,1 0,1 0,2 -1,2 0,1 0,1 -1,1l-10 0 0 22c0,3 0,5 1,6 1,2 2,3 5,3 0,0 1,-1 1,-1 1,0 1,0 2,0 0,0 1,0 1,-1 0,0 0,0 1,0 0,0 0,0 0,0 0,0 0,1 0,1 0,0 1,0 1,1 0,0 0,0 0,1zm38 3c0,0 0,1 0,1 0,0 -1,0 -1,0 0,0 -1,0 -2,0 -1,0 -1,0 -2,0 0,0 0,0 -1,0 0,0 0,-1 0,-1l0 -4c-2,2 -4,3 -6,4 -2,1 -4,2 -7,2 -2,0 -4,0 -5,-1 -2,0 -3,-1 -5,-2 -1,-1 -2,-3 -2,-4 -1,-2 -1,-3 -1,-5 0,-3 0,-5 1,-6 1,-2 2,-3 4,-4 2,-1 4,-2 6,-3 3,0 5,-1 9,-1l5 0 0 -3c0,-1 0,-3 0,-4 -1,-1 -1,-2 -2,-3 -1,-1 -2,-1 -3,-2 -1,0 -2,0 -4,0 -2,0 -3,0 -5,1 -1,0 -3,0 -4,1 -1,0 -2,1 -2,1 -1,1 -2,1 -2,1 0,0 0,0 -1,0 0,0 0,0 0,-1 0,0 0,0 0,-1 0,0 0,0 0,-1 0,-1 0,-1 0,-2 0,0 0,0 0,-1 1,0 2,-1 3,-1 1,-1 2,-1 3,-2 1,0 3,0 4,-1 2,0 3,0 5,0 3,0 5,0 7,1 2,1 4,2 5,3 1,1 2,3 3,4 0,2 0,5 0,7l0 27zm-7 -18l-6 0c-2,0 -4,0 -5,0 -2,1 -3,1 -4,2 -1,0 -2,1 -2,2 -1,1 -1,2 -1,3 0,2 1,4 2,5 1,2 3,2 6,2 2,0 3,0 5,-1 2,-1 3,-3 5,-5l0 -8zm50 12c0,0 0,1 0,1 0,0 -1,1 -1,1 0,0 0,1 0,1 0,0 0,0 -1,1 0,0 -1,0 -1,1 -1,0 -2,1 -3,1 -2,1 -3,1 -4,1 -1,1 -3,1 -4,1 -3,0 -6,-1 -8,-2 -2,0 -4,-2 -5,-4 -2,-2 -3,-4 -4,-6 -1,-3 -1,-6 -1,-10 0,-3 1,-7 1,-10 1,-3 3,-5 4,-7 2,-1 4,-3 6,-4 3,-1 5,-1 8,-1 1,0 2,0 3,0 2,1 3,1 4,1 1,1 2,1 2,2 1,0 2,1 2,1 0,0 1,1 1,1 0,0 0,0 0,1 0,0 0,0 0,1 0,0 0,0 0,1 0,1 0,2 0,2 0,1 -1,1 -1,1 0,0 -1,0 -2,-1 0,0 -1,-1 -2,-1 -1,-1 -2,-2 -3,-2 -1,-1 -3,-1 -4,-1 -4,0 -7,2 -9,4 -1,3 -2,7 -2,12 0,3 0,5 0,7 1,2 2,3 3,5 1,1 2,2 3,3 1,0 3,1 5,1 1,0 3,-1 4,-1 2,-1 3,-1 4,-2 0,-1 1,-1 2,-2 1,0 1,-1 1,-1 1,0 1,0 1,1 0,0 0,0 0,0 0,0 0,1 1,1 0,1 0,1 0,2zm17 6c0,0 0,0 -1,1 0,0 0,0 0,0 0,0 -1,0 -1,0 -1,0 -1,0 -2,0 -1,0 -1,0 -2,0 0,0 -1,0 -1,0 0,0 0,0 -1,0 0,-1 0,-1 0,-1l0 -40c0,0 0,0 0,-1 1,0 1,0 1,0 0,0 1,0 1,0 1,0 1,0 2,0 1,0 1,0 2,0 0,0 1,0 1,0 0,0 0,0 0,0 1,1 1,1 1,1l0 40zm0 -54c0,2 0,3 -1,4 0,1 -1,1 -3,1 -2,0 -3,0 -4,-1 0,-1 -1,-2 -1,-3 0,-2 1,-3 1,-4 1,-1 2,-1 4,-1 2,0 3,0 4,1 0,1 0,2 0,3zm21 56c0,3 0,5 0,7 -1,2 -1,3 -2,4 -1,2 -3,3 -4,3 -1,1 -3,1 -5,1 -1,0 -2,0 -3,0 0,0 -1,0 -1,0 -1,0 -1,-1 -1,-1 0,0 0,0 0,-1 0,0 0,0 0,0 0,-1 0,-1 0,-1 0,-1 0,-1 0,-2 0,0 0,0 0,-1 0,0 0,0 0,0 0,0 0,0 1,0 0,0 0,0 1,0 0,0 1,0 2,0 0,0 1,0 2,0 1,-1 1,-1 2,-2 0,-1 0,-1 1,-2 0,-2 0,-3 0,-5l0 -42c0,0 0,0 0,-1 0,0 0,0 1,0 0,0 0,0 1,0 0,0 1,0 2,0 0,0 1,0 1,0 1,0 1,0 2,0 0,0 0,0 0,0 0,1 0,1 0,1l0 42zm1 -56c0,2 0,3 -1,4 0,1 -2,1 -3,1 -2,0 -3,0 -4,-1 -1,-1 -1,-2 -1,-3 0,-2 0,-3 1,-4 1,-1 2,-1 4,-1 1,0 3,0 3,1 1,1 1,2 1,3zm47 32c0,1 0,2 -1,3 0,0 -1,0 -2,0l-26 0c0,3 0,5 1,6 0,2 1,4 2,5 1,1 2,2 4,3 1,1 3,1 6,1 2,0 3,0 5,-1 1,0 3,0 4,-1 1,0 2,0 2,-1 1,0 2,0 2,0 0,0 0,0 1,0 0,0 0,0 0,1 0,0 0,0 0,0 0,1 0,1 0,2 0,0 0,0 0,1 0,0 0,0 0,1 0,0 0,0 0,0 0,0 0,0 -1,1 0,0 0,0 -1,0 -1,1 -2,1 -3,2 -1,0 -3,0 -5,0 -1,1 -3,1 -5,1 -3,0 -6,-1 -8,-1 -3,-1 -5,-3 -7,-5 -1,-1 -3,-4 -4,-6 0,-3 -1,-6 -1,-10 0,-3 1,-6 2,-9 0,-3 2,-5 3,-7 2,-2 4,-3 6,-5 3,-1 5,-1 8,-1 4,0 6,0 8,1 3,1 4,3 6,5 1,1 2,3 3,6 1,2 1,4 1,7l0 1zm-7 -2c0,-4 -1,-7 -3,-9 -2,-2 -4,-3 -8,-3 -2,0 -3,0 -5,1 -1,0 -2,1 -3,2 -1,2 -2,3 -2,4 -1,2 -1,3 -1,5l22 0zm-823 -13c0,0 0,1 0,1 0,1 0,1 0,1 0,1 -1,1 -1,1 0,0 0,0 0,0 0,0 -1,0 -1,0 0,0 -1,0 -1,-1 -1,0 -1,0 -2,0 0,0 -1,0 -1,0 -1,0 -2,0 -3,0 0,1 -1,1 -2,2 -1,0 -1,1 -2,3 -1,1 -2,2 -3,4l0 26c0,0 0,0 0,1 0,0 -1,0 -1,0 0,0 -1,0 -1,0 -1,0 -1,0 -2,0 -1,0 -1,0 -2,0 0,0 -1,0 -1,0 0,0 0,0 0,0 0,-1 -1,-1 -1,-1l0 -40c0,0 1,0 1,-1 0,0 0,0 0,0 0,0 1,0 1,0 1,0 1,0 2,0 0,0 1,0 1,0 1,0 1,0 1,0 1,0 1,0 1,0 0,1 0,1 0,1l0 6c1,-2 2,-3 3,-4 1,-1 2,-2 3,-3 1,0 2,0 2,-1 1,0 2,0 3,0 0,0 1,0 1,0 1,0 1,0 2,0 0,0 1,1 1,1 1,0 1,0 1,0 0,0 1,0 1,1 0,0 0,0 0,0 0,0 0,1 0,1 0,0 0,1 0,2zm41 15c0,1 0,2 -1,3 0,0 -1,0 -2,0l-26 0c0,3 0,5 1,6 0,2 1,4 2,5 1,1 2,2 4,3 1,1 4,1 6,1 2,0 4,0 5,-1 1,0 3,0 4,-1 1,0 2,0 3,-1 0,0 1,0 1,0 0,0 0,0 1,0 0,0 0,0 0,1 0,0 0,0 0,0 0,1 0,1 0,2 0,0 0,0 0,1 0,0 0,0 0,1 0,0 0,0 0,0 0,0 0,0 0,1 -1,0 -1,0 -2,0 -1,1 -2,1 -3,2 -1,0 -3,0 -4,0 -2,1 -4,1 -6,1 -3,0 -6,-1 -8,-1 -3,-1 -5,-3 -7,-5 -1,-1 -3,-4 -3,-6 -1,-3 -2,-6 -2,-10 0,-3 1,-6 2,-9 0,-3 2,-5 3,-7 2,-2 4,-3 6,-5 3,-1 6,-1 8,-1 4,0 6,0 8,1 3,1 4,3 6,5 1,1 2,3 3,6 1,2 1,4 1,7l0 1zm-7 -2c0,-4 -1,-7 -3,-9 -2,-2 -4,-3 -8,-3 -2,0 -3,0 -5,1 -1,0 -2,1 -3,2 -1,2 -2,3 -2,4 -1,2 -1,3 -1,5l22 0zm53 24c0,0 0,0 -1,1 0,0 0,0 0,0 0,0 -1,0 -1,0 -1,0 -1,0 -2,0 -1,0 -1,0 -2,0 0,0 -1,0 -1,0 0,0 0,0 -1,0 0,-1 0,-1 0,-1l0 -23c0,-3 0,-5 0,-6 -1,-1 -1,-3 -2,-4 -1,-1 -1,-1 -2,-2 -2,0 -3,-1 -4,-1 -2,0 -4,1 -6,2 -1,2 -3,3 -5,6l0 28c0,0 0,0 -1,1 0,0 0,0 0,0 0,0 -1,0 -1,0 -1,0 -1,0 -2,0 -1,0 -1,0 -2,0 0,0 -1,0 -1,0 0,0 -1,0 -1,0 0,-1 0,-1 0,-1l0 -40c0,0 0,0 0,-1 0,0 1,0 1,0 0,0 1,0 1,0 0,0 1,0 2,0 0,0 1,0 1,0 1,0 1,0 1,0 0,0 1,0 1,0 0,1 0,1 0,1l0 5c2,-2 4,-4 7,-5 2,-1 4,-2 6,-2 3,0 5,0 7,1 2,1 3,2 4,4 2,1 2,3 3,5 0,2 1,5 1,8l0 24zm50 -21c0,4 0,7 -1,9 -1,3 -2,6 -4,8 -2,2 -4,3 -6,4 -3,1 -6,2 -9,2 -4,0 -6,-1 -9,-2 -2,-1 -4,-2 -6,-4 -2,-2 -3,-4 -4,-7 0,-2 -1,-5 -1,-9 0,-3 1,-6 1,-9 1,-2 3,-5 4,-7 2,-2 4,-3 7,-4 2,-1 5,-2 9,-2 3,0 6,0 8,1 3,1 5,3 6,5 2,2 3,4 4,6 1,3 1,6 1,9zm-8 1c0,-2 0,-4 0,-6 -1,-2 -1,-4 -2,-5 -1,-2 -2,-3 -4,-4 -1,-1 -3,-1 -6,-1 -2,0 -4,0 -5,1 -2,1 -3,2 -4,3 -1,2 -2,4 -2,5 -1,2 -1,5 -1,7 0,2 0,4 0,6 1,2 1,4 2,5 1,1 3,3 4,3 2,1 4,2 6,2 2,0 4,-1 6,-1 1,-1 3,-2 4,-4 1,-1 1,-3 2,-5 0,-2 0,-4 0,-6zm51 -20c0,0 0,0 0,0 0,0 0,1 0,1 0,0 0,0 0,0 0,0 0,1 0,1l-14 38c0,0 0,0 0,1 0,0 -1,0 -1,0 0,0 -1,0 -1,0 -1,0 -2,0 -3,0 -1,0 -1,0 -2,0 -1,0 -1,0 -1,0 -1,0 -1,0 -1,-1 0,0 -1,0 -1,0l-13 -38c0,-1 -1,-1 -1,-1 0,0 0,-1 0,-1 0,0 0,0 0,0 0,0 0,-1 0,-1 1,0 1,0 1,0 0,0 1,0 1,0 1,0 1,0 2,0 1,0 1,0 2,0 0,0 1,0 1,0 0,0 1,0 1,0 0,1 0,1 0,1l11 33 1 1 0 -1 11 -33c0,0 0,0 0,-1 0,0 1,0 1,0 0,0 0,0 1,0 0,0 1,0 2,0 1,0 1,0 2,0 0,0 0,0 1,0 0,0 0,0 0,0 0,0 0,1 0,1zm16 40c0,0 0,0 0,1 0,0 0,0 -1,0 0,0 0,0 -1,0 0,0 -1,0 -2,0 0,0 -1,0 -1,0 -1,0 -1,0 -2,0 0,0 0,0 0,0 0,-1 0,-1 0,-1l0 -40c0,0 0,0 0,-1 0,0 0,0 0,0 1,0 1,0 2,0 0,0 1,0 1,0 1,0 2,0 2,0 1,0 1,0 1,0 1,0 1,0 1,0 0,1 0,1 0,1l0 40zm1 -54c0,2 -1,3 -1,4 -1,1 -2,1 -4,1 -1,0 -3,0 -3,-1 -1,-1 -1,-2 -1,-3 0,-2 0,-3 1,-4 0,-1 2,-1 3,-1 2,0 3,0 4,1 1,1 1,2 1,3zm36 17c0,0 0,1 0,1 0,1 0,1 0,1 0,1 -1,1 -1,1 0,0 0,0 0,0 0,0 -1,0 -1,0 0,0 -1,0 -1,-1 -1,0 -1,0 -2,0 0,0 -1,0 -1,0 -1,0 -2,0 -3,0 0,1 -1,1 -2,2 -1,0 -1,1 -2,3 -1,1 -2,2 -3,4l0 26c0,0 0,0 0,1 0,0 -1,0 -1,0 0,0 -1,0 -1,0 0,0 -1,0 -2,0 -1,0 -1,0 -2,0 0,0 0,0 -1,0 0,0 0,0 0,0 0,-1 0,-1 0,-1l0 -40c0,0 0,0 0,-1 0,0 0,0 0,0 0,0 1,0 1,0 1,0 1,0 2,0 1,0 1,0 1,0 1,0 1,0 1,0 1,0 1,0 1,0 0,1 0,1 0,1l0 6c1,-2 2,-3 3,-4 1,-1 2,-2 3,-3 1,0 2,0 3,-1 0,0 1,0 2,0 0,0 1,0 1,0 1,0 1,0 2,0 0,0 1,1 1,1 1,0 1,0 1,0 0,0 1,0 1,1 0,0 0,0 0,0 0,0 0,1 0,1 0,0 0,1 0,2zm36 37c0,0 0,1 0,1 0,0 0,0 -1,0 0,0 -1,0 -2,0 0,0 -1,0 -2,0 0,0 0,0 -1,0 0,0 0,-1 0,-1l0 -4c-2,2 -4,3 -6,4 -2,1 -4,2 -7,2 -2,0 -4,0 -5,-1 -2,0 -3,-1 -5,-2 -1,-1 -2,-3 -2,-4 -1,-2 -1,-3 -1,-5 0,-3 0,-5 1,-6 1,-2 2,-3 4,-4 2,-1 4,-2 6,-3 3,0 6,-1 9,-1l5 0 0 -3c0,-1 0,-3 0,-4 -1,-1 -1,-2 -2,-3 -1,-1 -2,-1 -3,-2 -1,0 -2,0 -4,0 -2,0 -3,0 -5,1 -1,0 -3,0 -4,1 -1,0 -2,1 -2,1 -1,1 -2,1 -2,1 0,0 0,0 -1,0 0,0 0,0 0,-1 0,0 0,0 0,-1 0,0 0,0 0,-1 0,-1 0,-1 0,-2 0,0 0,0 1,-1 0,0 1,-1 2,-1 1,-1 2,-1 3,-2 1,0 3,0 4,-1 2,0 3,0 5,0 3,0 5,0 7,1 2,1 4,2 5,3 1,1 2,3 3,4 0,2 0,5 0,7l0 27zm-7 -18l-6 0c-2,0 -4,0 -5,0 -2,1 -3,1 -4,2 -1,0 -2,1 -2,2 -1,1 -1,2 -1,3 0,2 1,4 2,5 1,2 3,2 6,2 2,0 3,0 5,-1 2,-1 3,-3 5,-5l0 -8zm55 18c0,0 0,0 0,1 0,0 0,0 0,0 -1,0 -1,0 -2,0 0,0 -1,0 -1,0 -1,0 -2,0 -2,0 -1,0 -1,0 -1,0 -1,0 -1,0 -1,0 0,-1 0,-1 0,-1l0 -23c0,-3 0,-5 -1,-6 0,-1 0,-3 -1,-4 -1,-1 -2,-1 -3,-2 -1,0 -2,-1 -4,-1 -1,0 -3,1 -5,2 -2,2 -4,3 -6,6l0 28c0,0 0,0 0,1 0,0 0,0 0,0 -1,0 -1,0 -2,0 0,0 -1,0 -1,0 -1,0 -2,0 -2,0 -1,0 -1,0 -1,0 -1,0 -1,0 -1,0 0,-1 0,-1 0,-1l0 -40c0,0 0,0 0,-1 0,0 0,0 1,0 0,0 0,0 1,0 0,0 1,0 1,0 1,0 1,0 2,0 0,0 1,0 1,0 0,0 0,0 0,0 1,1 1,1 1,1l0 5c2,-2 4,-4 6,-5 3,-1 5,-2 7,-2 3,0 5,0 7,1 2,1 3,2 4,4 1,1 2,3 3,5 0,2 0,5 0,8l0 24zm22 2c0,3 0,5 -1,7 0,2 -1,3 -2,4 -1,2 -2,3 -4,3 -1,1 -3,1 -5,1 -1,0 -2,0 -2,0 -1,0 -1,0 -2,0 0,0 0,-1 -1,-1 0,0 0,0 0,-1 0,0 0,0 0,0 0,-1 0,-1 0,-1 0,-1 0,-1 0,-2 0,0 0,0 0,-1 0,0 1,0 1,0 0,0 0,0 0,0 0,0 1,0 1,0 1,0 1,0 2,0 1,0 2,0 3,0 0,-1 1,-1 1,-2 1,-1 1,-1 1,-2 0,-2 1,-3 1,-5l0 -42c0,0 0,0 0,-1 0,0 0,0 0,0 1,0 1,0 1,0 1,0 1,0 2,0 1,0 1,0 2,0 0,0 1,0 1,0 0,0 1,0 1,0 0,1 0,1 0,1l0 42zm1 -56c0,2 -1,3 -1,4 -1,1 -2,1 -4,1 -2,0 -3,0 -3,-1 -1,-1 -1,-2 -1,-3 0,-2 0,-3 1,-4 0,-1 1,-1 3,-1 2,0 3,0 4,1 0,1 1,2 1,3zm46 32c0,1 0,2 0,3 -1,0 -2,0 -2,0l-27 0c0,3 1,5 1,6 0,2 1,4 2,5 1,1 3,2 4,3 2,1 4,1 6,1 2,0 4,0 5,-1 2,0 3,0 4,-1 1,0 2,0 3,-1 1,0 1,0 2,0 0,0 0,0 0,0 0,0 0,0 0,1 1,0 1,0 1,0 0,1 0,1 0,2 0,0 0,0 0,1 0,0 0,0 0,1 0,0 -1,0 -1,0 0,0 0,0 0,1 0,0 -1,0 -1,0 -1,1 -2,1 -4,2 -1,0 -2,0 -4,0 -2,1 -3,1 -5,1 -4,0 -6,-1 -9,-1 -2,-1 -5,-3 -6,-5 -2,-1 -3,-4 -4,-6 -1,-3 -1,-6 -1,-10 0,-3 0,-6 1,-9 1,-3 2,-5 4,-7 2,-2 4,-3 6,-5 2,-1 5,-1 8,-1 3,0 6,0 8,1 2,1 4,3 5,5 2,1 3,3 3,6 1,2 1,4 1,7l0 1zm-7 -2c0,-4 -1,-7 -2,-9 -2,-2 -5,-3 -8,-3 -2,0 -4,0 -5,1 -2,0 -3,1 -4,2 -1,2 -1,3 -2,4 0,2 -1,3 -1,5l22 0zm47 24c0,0 0,0 -1,1 0,0 0,0 0,0 0,0 -1,0 -1,0 -1,0 -1,0 -2,0 -1,0 -1,0 -2,0 0,0 -1,0 -1,0 0,0 -1,0 -1,0 0,-1 0,-1 0,-1l0 -40c0,0 0,0 0,-1 0,0 1,0 1,0 0,0 1,0 1,0 1,0 1,0 2,0 1,0 1,0 2,0 0,0 1,0 1,0 0,0 0,0 0,0 1,1 1,1 1,1l0 40zm0 -54c0,2 0,3 -1,4 0,1 -1,1 -3,1 -2,0 -3,0 -4,-1 0,-1 -1,-2 -1,-3 0,-2 1,-3 1,-4 1,-1 2,-1 4,-1 2,0 3,0 3,1 1,1 1,2 1,3zm64 54c0,0 0,1 -1,1 0,0 0,0 -1,0 0,0 -1,0 -1,0 -1,0 -2,0 -2,0 -1,0 -1,0 -1,0 0,0 -1,-1 -1,-1l0 -4c-1,2 -3,3 -5,4 -3,1 -5,2 -7,2 -2,0 -4,0 -6,-1 -2,0 -3,-1 -4,-2 -1,-1 -2,-3 -3,-4 -1,-2 -1,-3 -1,-5 0,-3 0,-5 1,-6 1,-2 3,-3 4,-4 2,-1 4,-2 7,-3 2,0 5,-1 8,-1l5 0 0 -3c0,-1 0,-3 0,-4 0,-1 -1,-2 -2,-3 0,-1 -1,-1 -2,-2 -2,0 -3,0 -5,0 -1,0 -3,0 -5,1 -1,0 -2,0 -3,1 -1,0 -2,1 -3,1 -1,1 -1,1 -2,1 0,0 0,0 0,0 0,0 -1,0 -1,-1 0,0 0,0 0,-1 0,0 0,0 0,-1 0,-1 0,-1 0,-2 0,0 0,0 1,-1 0,0 1,-1 2,-1 1,-1 2,-1 3,-2 2,0 3,0 4,-1 2,0 3,0 5,0 3,0 5,0 7,1 2,1 4,2 5,3 1,1 2,3 3,4 0,2 1,5 1,7l0 27zm-8 -18l-6 0c-2,0 -4,0 -5,0 -1,1 -3,1 -4,2 -1,0 -1,1 -2,2 0,1 -1,2 -1,3 0,2 1,4 2,5 2,2 4,2 6,2 2,0 4,0 5,-1 2,-1 4,-3 5,-5l0 -8z"/>
 </g>
</svg>
