<?xml version="1.0" encoding="UTF-8"?>
<!DOCTYPE svg PUBLIC "-//W3C//DTD SVG 1.1//EN" "http://www.w3.org/Graphics/SVG/1.1/DTD/svg11.dtd">
<!-- Creator: CorelDRAW X7 -->
<svg xmlns="http://www.w3.org/2000/svg" xml:space="preserve" width="236px" height="165px" version="1.1" style="shape-rendering:geometricPrecision; text-rendering:geometricPrecision; image-rendering:optimizeQuality; fill-rule:evenodd; clip-rule:evenodd"
viewBox="0 0 152 106"
 xmlns:xlink="http://www.w3.org/1999/xlink">
 <defs>
  <style type="text/css">
   <![CDATA[
    .str1 {stroke:white;stroke-width:2.84225}
    .str3 {stroke:#2F70C1;stroke-width:1.89483}
    .str0 {stroke:white;stroke-width:1.89483}
    .str2 {stroke:white;stroke-width:0.378967}
    .fil0 {fill:none}
    .fil2 {fill:#2F70C1}
    .fil1 {fill:white}
    .fil3 {fill:url(#id0);fill-rule:nonzero}
   ]]>
  </style>
  <linearGradient id="id0" gradientUnits="userSpaceOnUse" x1="151.578" y1="99.8354" x2="-0" y2="99.8354">
   <stop offset="0" style="stop-opacity:1; stop-color:#2F70C1"/>
   <stop offset="1" style="stop-opacity:1; stop-color:white"/>
  </linearGradient>
 </defs>
 <g id="LOGO-SMALL-CURVES">
  <metadata id="CorelCorpID_0Corel-Layer"/>
  <rect class="fil0 str0" x="55" y="39" width="42.0092" height="32.9049"/>
  <polygon class="fil0 str0" points="46,39 76,9 107,39 "/>
  <path class="fil0 str1" d="M114 72l0 3c0,2 -1,3 -2,3l-5 0m-61 0l-5 0c-2,0 -3,-1 -3,-3l0 -71c0,-1 1,-3 3,-3l71 0c1,0 2,2 2,3l0 5"/>
  <rect class="fil0 str0" x="66" y="44" width="18.9525" height="27.5962"/>
  <rect class="fil1 str2" x="59" y="72" width="2.53491" height="2.53491"/>
  <rect class="fil1 str2" x="75" y="72" width="2.53491" height="2.53491"/>
  <rect class="fil1 str2" x="90" y="72" width="2.53491" height="2.53491"/>
  <polygon class="fil2 str3" points="114,64 116,60 117,60 117,15 112,15 112,60 112,60 "/>
  <rect class="fil0 str0" x="46" y="72" width="60.6699" height="11.2576" rx="6" ry="6"/>
  <path class="fil3" d="M8 102c0,1 0,2 -1,2 0,1 0,1 -1,1 0,1 0,1 -1,1 0,0 -1,0 -2,0 0,0 0,0 -1,0 0,0 0,0 -1,0 0,0 0,0 0,0 -1,-1 -1,-1 -1,-1 0,0 0,0 0,0 0,0 0,0 0,-1 0,0 0,0 0,0 0,0 0,0 0,-1 0,0 0,0 0,0 0,0 0,0 0,0 0,0 1,0 1,0 0,0 0,1 0,1 1,0 1,0 1,0 1,0 1,0 1,0 1,0 1,0 1,0 0,0 1,0 1,0 0,0 0,0 0,-1 0,0 0,0 0,0 0,-1 0,-1 0,-1 0,0 0,0 -1,0 0,-1 0,-1 0,-1 -1,0 -1,0 -1,0 -1,0 -1,-1 -1,-1 0,0 -1,0 -1,0 0,-1 0,-1 -1,-1 0,-1 0,-1 0,-2 0,0 0,-1 1,-1 0,-1 0,-1 0,-1 1,-1 1,-1 2,-1 0,0 1,0 1,0 0,0 1,0 1,0 0,0 1,0 1,0 0,0 0,0 0,0 1,0 1,1 1,1 0,0 0,0 0,0 0,0 0,0 0,0 0,0 0,0 0,0 0,0 0,0 0,1 0,0 0,0 0,0 0,0 0,0 0,0 0,0 0,0 0,1 0,0 0,0 0,0 0,0 0,0 -1,-1 0,0 0,0 0,0 0,0 -1,0 -1,0 0,0 0,0 -1,0 0,0 0,0 0,0 -1,0 -1,0 -1,0 0,0 0,0 0,1 0,0 0,0 0,0 0,0 0,1 0,1 0,0 0,0 0,0 1,0 1,1 1,1 1,0 1,0 1,0 1,0 1,0 1,1 0,0 1,0 1,0 0,1 0,1 1,1 0,1 0,1 0,1zm4 3c0,0 0,1 0,1 0,0 -1,0 -1,0 -1,0 -1,0 -1,0 0,0 -1,-1 -1,-1 0,-1 1,-1 1,-1 0,-1 0,-1 1,-1 0,0 1,0 1,1 0,0 0,0 0,1zm16 1c0,0 0,0 0,0 0,0 0,0 0,0 0,0 0,0 0,0 0,0 -1,0 -1,0 0,0 0,0 0,0 -1,0 -1,0 -1,0 0,0 0,0 0,0 0,0 0,0 0,0l0 -10 0 0 -3 10c0,0 0,0 -1,0 0,0 0,0 0,0 0,0 0,0 0,0 0,0 0,0 -1,0 0,0 0,0 0,0 0,0 0,0 -1,0 0,0 0,0 0,0 0,0 0,0 0,0l-3 -10 0 0 0 10c0,0 0,0 0,0 0,0 0,0 0,0 0,0 -1,0 -1,0 0,0 0,0 0,0 -1,0 -1,0 -1,0 0,0 0,0 0,0 0,0 0,0 0,0 0,0 0,0 0,0l0 -11c0,0 0,0 0,-1 0,0 0,0 0,0l2 0c0,0 1,0 1,0 0,0 0,0 0,0 0,1 1,1 1,1 0,0 0,0 0,0l2 8 0 0 3 -8c0,0 0,0 0,0 0,0 1,0 1,-1 0,0 0,0 0,0 0,0 1,0 1,0l1 0c1,0 1,0 1,0 0,0 0,0 0,0 0,0 0,1 0,1 0,0 0,0 0,0l0 11zm5 -1c0,0 0,1 0,1 0,0 0,0 -1,0 0,0 -1,0 -1,0 0,0 0,-1 0,-1 0,-1 0,-1 0,-1 0,-1 1,-1 1,-1 1,0 1,0 1,1 0,0 0,0 0,1zm17 1c0,0 0,0 0,0 0,0 0,0 -1,0 0,0 0,0 0,0 0,0 0,0 0,0 -1,0 -1,0 -1,0 0,0 0,0 0,0 0,0 -1,0 -1,0 0,0 0,0 0,0l0 -10 0 0 -3 10c0,0 0,0 0,0 0,0 0,0 0,0 0,0 -1,0 -1,0 0,0 0,0 0,0 0,0 -1,0 -1,0 0,0 0,0 0,0 0,0 0,0 0,0 0,0 0,0 0,0l-4 -10 0 0 0 10c0,0 0,0 0,0 0,0 0,0 0,0 0,0 0,0 0,0 -1,0 -1,0 -1,0 0,0 0,0 0,0 -1,0 -1,0 -1,0 0,0 0,0 0,0 0,0 0,0 0,0l0 -11c0,0 0,0 0,-1 0,0 1,0 1,0l1 0c1,0 1,0 1,0 0,0 0,0 1,0 0,1 0,1 0,1 0,0 0,0 0,0l3 8 0 0 2 -8c1,0 1,0 1,0 0,0 0,0 0,-1 0,0 0,0 1,0 0,0 0,0 0,0l2 0c0,0 0,0 0,0 0,0 0,0 0,0 1,0 1,1 1,1 0,0 0,0 0,0l0 11zm13 -6c0,1 0,2 0,3 -1,0 -1,1 -2,1 0,1 -1,1 -1,2 -1,0 -2,0 -3,0 -1,0 -2,0 -2,0 -1,0 -1,-1 -2,-1 0,-1 -1,-1 -1,-2 0,-1 0,-2 0,-3 0,-1 0,-2 0,-2 0,-1 1,-2 1,-2 1,-1 1,-1 2,-2 1,0 1,0 2,0 1,0 2,0 3,0 0,1 1,1 2,1 0,1 0,1 1,2 0,1 0,2 0,3zm-3 0c0,-1 0,-1 0,-2 0,0 0,-1 0,-1 0,0 -1,-1 -1,-1 -1,0 -1,0 -2,0 0,0 -1,0 -1,0 -1,0 -1,1 -1,1 0,0 -1,1 -1,1 0,1 0,1 0,2 0,1 0,1 0,2 0,0 1,1 1,1 0,0 0,1 1,1 0,0 1,0 1,0 1,0 1,0 2,0 0,0 0,-1 1,-1 0,0 0,-1 0,-1 0,-1 0,-1 0,-2zm15 5c0,0 0,0 0,0 0,1 -1,1 -1,1 0,0 0,0 0,0 0,0 0,0 0,0l-1 0c0,0 -1,0 -1,0 0,0 0,0 0,0 0,0 0,-1 -1,-1 0,0 0,0 0,-1l-3 -5c0,0 0,-1 0,-1 -1,-1 -1,-1 -1,-1l0 0c0,0 0,1 0,1 0,1 0,1 0,1l0 7c0,0 0,0 0,0 0,0 0,0 0,0 0,0 0,0 0,0 -1,0 -1,0 -1,0 0,0 0,0 -1,0 0,0 0,0 0,0 0,0 0,0 0,0 0,0 0,0 0,0l0 -11c0,0 0,-1 0,-1 0,0 1,0 1,0l1 0c0,0 1,0 1,0 0,0 0,0 0,0 0,0 0,1 0,1 1,0 1,0 1,0l2 5c0,0 0,0 0,0 1,1 1,1 1,1 0,0 0,1 0,1 0,0 0,0 1,1l0 0c0,-1 0,-1 0,-2 0,0 0,-1 0,-1l0 -6c0,0 0,0 0,0 0,0 0,0 0,0 0,0 0,0 0,0 0,0 0,0 1,0 0,0 0,0 0,0 0,0 0,0 0,0 1,0 1,0 1,0 0,0 0,0 0,0l0 11zm10 -10c0,0 0,0 0,1 0,0 0,0 0,0 0,0 0,0 0,0 0,0 0,0 0,0l-3 0 0 10c0,0 0,0 0,0 0,0 0,0 0,0 -1,0 -1,0 -1,0 0,0 0,0 0,0 -1,0 -1,0 -1,0 0,0 0,0 0,0 0,0 -1,0 -1,0 0,0 0,0 0,0l0 -10 -3 0c0,0 0,0 0,0 0,0 0,0 0,0 0,0 0,0 0,0 0,-1 0,-1 0,-1 0,0 0,0 0,0 0,0 0,-1 0,-1 0,0 0,0 0,0 0,0 0,0 0,0l9 0c0,0 0,0 0,0 0,0 0,0 0,0 0,0 0,1 0,1 0,0 0,0 0,0zm1 8c0,-1 0,-1 0,-1 0,-1 0,-1 1,-1 0,0 0,-1 0,-1 1,0 1,0 1,-1 0,0 0,0 0,0 0,-1 -1,-1 -1,-1 0,0 0,-1 0,-1 0,0 0,0 0,0 0,-1 0,-1 0,-2 0,0 1,0 1,-1 0,0 1,0 1,0 1,0 1,0 2,0 1,0 1,0 2,0 0,0 1,0 1,0 0,0 0,1 1,1 0,0 0,1 0,1 0,1 0,1 0,1 -1,0 -1,1 -1,1 0,0 -1,1 -1,1 0,0 -1,0 -1,1 0,0 0,0 0,0 0,0 1,1 1,1 0,0 0,0 1,0 0,1 0,1 0,1 0,0 0,0 0,0 0,-1 1,-1 1,-1 0,0 0,0 0,0 0,-1 0,-1 0,-1l0 0c0,0 0,0 0,0 0,0 0,0 0,-1 0,0 0,0 0,0 0,0 1,0 1,0 0,0 0,0 0,0 0,0 1,0 1,0 0,0 0,1 0,1 0,0 0,0 0,0l0 0c0,0 0,1 0,1 0,0 0,1 0,1 0,0 -1,0 -1,1 0,0 0,0 0,0 0,1 0,1 0,1 1,0 1,0 1,0 0,0 0,0 0,0 0,0 0,0 0,0 0,0 0,0 1,0 0,0 0,0 0,0 0,0 0,0 0,1 0,0 0,0 0,0 0,0 0,0 0,1 0,0 0,0 0,0 0,0 0,0 0,0 0,0 -1,0 -1,0 0,0 0,0 0,0 0,0 0,0 -1,0 0,0 0,0 0,0 0,0 0,0 -1,0 0,-1 0,-1 -1,-1 0,0 0,0 0,0 -1,1 -1,1 -1,1 -1,0 -1,0 -1,0 -1,0 -1,0 -2,0 0,0 0,0 -1,0 0,0 0,0 -1,0 0,0 0,0 -1,-1 0,0 0,0 0,0 -1,-1 -1,-1 -1,-1 0,-1 0,-1 0,-1zm3 -7c0,1 1,1 1,1 0,0 0,0 0,0 0,0 0,1 0,1 0,0 0,0 0,0 1,0 1,0 1,0 1,0 1,-1 1,-1 0,0 0,0 0,0 0,0 0,0 0,-1 0,0 0,0 0,0 0,0 0,0 0,0 0,0 0,-1 0,-1 -1,0 -1,0 -1,0 0,0 -1,0 -1,0 0,0 0,1 0,1 0,0 0,0 0,0 0,0 -1,0 -1,0zm-1 7c0,0 1,0 1,0 0,0 0,1 0,1 0,0 0,0 1,0 0,0 0,0 1,0 0,0 0,0 0,0 0,0 1,0 1,0 0,0 0,0 0,0 0,0 1,0 1,0 -1,-1 -1,-1 -1,-1 0,0 -1,-1 -1,-1 0,0 0,0 -1,-1 0,0 0,0 0,0 -1,0 -1,0 -1,0 0,0 0,0 0,1 0,0 0,0 0,0 -1,0 -1,0 -1,1zm22 -3c0,1 -1,2 -1,3 0,0 -1,1 -1,2 -1,0 -1,0 -2,1 -1,0 -2,0 -3,0l-3 0c0,0 0,0 0,0 0,0 0,-1 0,-1l0 -10c0,0 0,-1 0,-1 0,0 0,0 0,0l3 0c2,0 2,0 3,0 1,1 2,1 2,2 1,0 1,1 1,1 0,1 1,2 1,3zm-3 0c0,-1 0,-1 0,-2 0,0 0,-1 -1,-1 0,0 0,0 -1,-1 0,0 -1,0 -2,0l-1 0 0 8 1 0c1,0 2,0 2,0 0,0 1,-1 1,-1 0,0 1,-1 1,-1 0,-1 0,-1 0,-2zm12 5c0,0 0,0 -1,0 0,1 0,1 0,1 0,0 0,0 0,0 0,0 0,0 0,0l-6 0c0,0 0,0 0,0 0,0 0,-1 0,-1l0 -10c0,0 0,-1 0,-1 0,0 0,0 0,0l6 0c0,0 0,0 0,0 0,0 0,0 0,0 0,0 0,0 0,1 0,0 0,0 0,0 0,0 0,0 0,1 0,0 0,0 0,0 0,0 0,0 0,0 0,0 0,0 0,0l-4 0 0 3 3 0c1,0 1,0 1,0 0,0 0,0 0,0 0,0 0,0 0,0 0,0 0,1 0,1 0,0 0,0 0,0 0,0 0,0 0,1 0,0 0,0 0,0 0,0 0,0 -1,0l-3 0 0 3 4 0c0,0 0,0 0,0 0,0 0,0 0,0 0,0 0,0 0,1 1,0 1,0 1,0zm10 -1c0,0 0,0 0,1 0,0 0,0 -1,0 0,0 0,0 0,0 0,0 0,0 0,0 0,0 0,0 0,0 0,1 -1,1 -1,1 0,0 0,0 -1,0 0,0 -1,0 -1,0 -1,0 -1,0 -2,0 -1,0 -1,-1 -2,-1 0,-1 -1,-1 -1,-2 0,-1 0,-2 0,-3 0,-1 0,-2 0,-2 0,-1 1,-2 1,-2 1,-1 1,-1 2,-2 1,0 1,0 2,0 1,0 1,0 1,0 1,0 1,0 1,0 0,0 1,0 1,1 0,0 0,0 0,0 0,0 0,0 0,0 0,0 0,0 0,0 0,0 0,0 1,1 0,0 0,0 0,0 0,0 0,0 -1,0 0,1 0,1 0,1 0,0 0,0 0,0 0,0 0,0 0,0 0,0 0,0 0,0 0,0 0,0 -1,-1 0,0 0,0 -1,0 0,0 0,0 -1,0 0,0 0,0 -1,0 0,0 -1,1 -1,1 0,0 0,1 0,1 -1,1 -1,1 -1,2 0,1 0,1 1,2 0,0 0,1 0,1 1,0 1,1 1,1 1,0 1,0 1,0 1,0 1,0 2,0 0,0 0,0 0,0 1,-1 1,-1 1,-1 0,0 0,0 0,0 0,0 0,0 0,0 0,0 0,0 0,0 1,0 1,0 1,1 0,0 0,0 0,0zm12 -4c0,1 0,2 -1,3 0,0 0,1 -1,1 0,1 -1,1 -1,2 -1,0 -2,0 -3,0 -1,0 -2,0 -2,0 -1,0 -2,-1 -2,-1 -1,-1 -1,-1 -1,-2 0,-1 0,-2 0,-3 0,-1 0,-2 0,-2 0,-1 1,-2 1,-2 1,-1 1,-1 2,-2 1,0 1,0 2,0 1,0 2,0 3,0 0,1 1,1 1,1 1,1 1,1 1,2 1,1 1,2 1,3zm-3 0c0,-1 0,-1 0,-2 0,0 0,-1 0,-1 -1,0 -1,-1 -1,-1 -1,0 -1,0 -2,0 0,0 -1,0 -1,0 -1,0 -1,1 -1,1 0,0 -1,1 -1,1 0,1 0,1 0,2 0,1 0,1 0,2 0,0 1,1 1,1 0,0 0,1 1,1 0,0 1,0 1,0 1,0 1,0 2,0 0,0 0,-1 1,-1 0,0 0,-1 0,-1 0,-1 0,-1 0,-2zm14 6c0,0 0,0 0,0 0,0 -1,0 -1,0 0,0 0,0 0,0 0,0 0,0 -1,0 0,0 0,0 0,0 -1,0 -1,0 -1,0 0,0 0,0 0,0 0,0 0,0 0,0l-1 -3c0,0 0,-1 0,-1 -1,0 -1,0 -1,0 0,-1 0,-1 0,-1 -1,0 -1,0 -1,0l-1 0 0 5c0,0 0,0 0,0 0,0 0,0 0,0 0,0 0,0 0,0 -1,0 -1,0 -1,0 0,0 0,0 -1,0 0,0 0,0 0,0 0,0 0,0 0,0 0,0 0,0 0,0l0 -11c0,0 0,-1 0,-1 0,0 0,0 1,0l3 0c0,0 0,0 0,0 1,0 1,0 1,0 0,0 1,0 1,1 1,0 1,0 1,0 0,0 1,1 1,1 0,0 0,1 0,1 0,1 0,1 0,1 0,1 0,1 -1,1 0,1 0,1 0,1 -1,0 -1,0 -1,0 0,1 0,1 0,1 0,0 0,0 1,0 0,0 0,1 0,1 0,0 0,0 0,1l1 2c0,0 1,0 1,0 0,0 0,1 0,1zm-4 -8c0,-1 0,-1 0,-1 0,-1 0,-1 -1,-1 0,0 0,0 0,0 0,0 0,0 -1,0l-1 0 0 3 1 0c1,0 1,0 1,0 1,0 1,0 1,0 0,0 0,0 0,-1 0,0 0,0 0,0z"/>
 </g>
</svg>
