<?xml version="1.0" encoding="UTF-8"?>
<!DOCTYPE svg PUBLIC "-//W3C//DTD SVG 1.1//EN" "http://www.w3.org/Graphics/SVG/1.1/DTD/svg11.dtd">
<!-- Creator: CorelDRAW X7 -->
<svg xmlns="http://www.w3.org/2000/svg" xml:space="preserve" width="933px" height="131px" version="1.1" style="shape-rendering:geometricPrecision; text-rendering:geometricPrecision; image-rendering:optimizeQuality; fill-rule:evenodd; clip-rule:evenodd"
viewBox="0 0 3429 483"
 xmlns:xlink="http://www.w3.org/1999/xlink">
 <defs>
  <style type="text/css">
   <![CDATA[
    .str1 {stroke:white;stroke-width:16.2856}
    .str3 {stroke:#2F70C1;stroke-width:10.8571}
    .str0 {stroke:white;stroke-width:10.8571}
    .str2 {stroke:white;stroke-width:2.17141}
    .fil0 {fill:none}
    .fil2 {fill:#2F70C1}
    .fil1 {fill:white}
    .fil4 {fill:white;fill-rule:nonzero}
    .fil3 {fill:url(#id0);fill-rule:nonzero}
   ]]>
  </style>
  <linearGradient id="id0" gradientUnits="userSpaceOnUse" x1="3424.35" y1="238.274" x2="591.298" y2="238.274">
   <stop offset="0" style="stop-opacity:1; stop-color:#2F70C1"/>
   <stop offset="1" style="stop-opacity:1; stop-color:white"/>
  </linearGradient>
 </defs>
 <g id="Layer_x0020_2">
  <metadata id="CorelCorpID_0Corel-Layer"/>
  <rect class="fil0 str0" x="104" y="224" width="241" height="189"/>
  <polygon class="fil0 str0" points="54,224 225,53 402,224 "/>
  <path class="fil0 str1" d="M446 412l0 18c0,9 -7,16 -16,16l-28 0m-348 0l-30 0c-9,0 -16,-7 -16,-16l0 -406c0,-9 7,-16 16,-16l406 0c9,0 16,7 16,16l0 29"/>
  <rect class="fil0 str0" x="171" y="254" width="109" height="158"/>
  <rect class="fil1 str2" x="130" y="412" width="14.5246" height="14.5246"/>
  <rect class="fil1 str2" x="217" y="412" width="14.5246" height="14.5246"/>
  <rect class="fil1 str2" x="305" y="412" width="14.5246" height="14.5246"/>
  <polygon class="fil2 str3" points="446,369 457,343 459,343 459,83 433,83 433,343 435,343 "/>
  <rect class="fil0 str0" x="54" y="413" width="347.628" height="64.504" rx="32" ry="32"/>
  <path class="fil3" d="M3424 347c0,1 0,2 0,3 -1,1 -2,1 -4,2 -1,1 -4,1 -7,1 -3,0 -8,1 -14,1 -4,0 -8,-1 -11,-1 -3,0 -5,0 -7,-1 -1,-1 -3,-1 -3,-2 -1,-1 -1,-3 -2,-4l-20 -49c-2,-6 -5,-11 -7,-15 -2,-5 -5,-8 -7,-11 -3,-3 -7,-5 -10,-7 -4,-1 -8,-2 -13,-2l-14 0 0 84c0,1 0,3 -1,3 -1,1 -2,2 -4,3 -1,0 -4,1 -7,1 -2,0 -6,1 -10,1 -5,0 -8,-1 -11,-1 -3,0 -5,-1 -7,-1 -2,-1 -3,-2 -4,-3 0,0 -1,-2 -1,-3l0 -200c0,-5 2,-9 4,-11 3,-2 6,-4 10,-4l57 0c6,0 10,1 14,1 4,0 7,0 10,1 9,1 17,3 24,6 8,3 14,7 19,12 4,5 8,11 11,18 3,6 4,14 4,23 0,7 -1,14 -3,20 -2,6 -5,12 -8,16 -4,5 -8,9 -14,13 -5,3 -11,6 -18,8 3,2 6,4 9,6 3,3 6,5 8,9 3,3 5,7 8,11 2,4 4,9 6,14l19 43c2,5 3,8 3,10 1,2 1,4 1,5zm-58 -150c0,-8 -1,-14 -5,-19 -3,-5 -8,-8 -16,-10 -2,-1 -5,-1 -8,-2 -3,0 -7,0 -12,0l-20 0 0 62 23 0c6,0 12,0 17,-2 5,-2 9,-4 12,-7 3,-2 5,-6 7,-9 1,-4 2,-9 2,-13zm-2630 89c0,12 -2,22 -7,31 -4,8 -10,16 -17,22 -8,6 -16,10 -26,13 -10,3 -21,4 -32,4 -8,0 -15,0 -21,-2 -7,-1 -13,-2 -18,-4 -5,-2 -9,-4 -12,-6 -4,-2 -6,-4 -8,-5 -1,-1 -2,-4 -3,-6 0,-3 -1,-7 -1,-12 0,-4 0,-7 1,-9 0,-3 0,-5 1,-6 0,-2 1,-3 2,-3 1,-1 2,-1 3,-1 1,0 4,1 7,3 3,1 6,4 11,6 4,2 10,4 16,6 6,2 14,3 22,3 6,0 11,-1 15,-2 4,-1 8,-3 11,-6 3,-2 5,-5 7,-8 1,-4 2,-8 2,-12 0,-5 -1,-9 -4,-13 -3,-4 -6,-7 -11,-9 -4,-3 -9,-6 -15,-8 -5,-3 -11,-5 -17,-8 -6,-3 -12,-6 -17,-9 -6,-4 -11,-8 -15,-13 -4,-5 -8,-10 -11,-17 -3,-7 -4,-15 -4,-24 0,-10 2,-20 6,-28 4,-8 9,-14 16,-20 7,-5 14,-9 23,-12 9,-2 19,-3 29,-3 5,0 11,0 16,1 5,1 10,2 15,3 4,1 8,3 12,5 3,1 6,3 7,4 1,1 2,2 2,3 0,1 1,2 1,3 0,1 1,3 1,5 0,2 0,4 0,7 0,4 0,6 0,9 -1,2 -1,4 -1,5 -1,2 -1,3 -2,4 -1,0 -2,1 -3,1 -1,0 -3,-1 -6,-3 -3,-1 -6,-3 -10,-5 -4,-2 -9,-4 -14,-5 -5,-2 -11,-2 -17,-2 -5,0 -9,0 -13,1 -4,2 -7,3 -9,5 -3,2 -4,5 -6,8 -1,3 -1,6 -1,9 0,5 1,9 4,13 2,4 6,7 10,10 5,2 10,5 16,7 5,3 11,5 17,8 6,3 12,6 18,9 5,4 10,8 15,13 4,5 8,10 11,17 2,7 4,14 4,23zm82 42c0,10 -2,17 -6,21 -3,4 -10,6 -20,6 -9,0 -16,-2 -19,-6 -4,-3 -6,-10 -6,-20 0,-11 2,-18 6,-22 3,-3 10,-5 20,-5 9,0 16,2 19,5 4,4 6,11 6,21zm303 18c0,1 0,3 -1,3 -1,1 -2,2 -4,3 -1,0 -3,1 -6,1 -3,0 -6,1 -11,1 -4,0 -7,-1 -10,-1 -3,0 -5,-1 -6,-1 -2,-1 -3,-2 -4,-3 0,0 -1,-2 -1,-3l0 -180 0 0 -64 180c0,2 -1,3 -2,4 -1,1 -3,2 -4,2 -2,1 -4,1 -7,1 -3,0 -6,1 -10,1 -4,0 -7,-1 -10,-1 -3,0 -5,-1 -7,-1 -1,-1 -3,-2 -4,-3 -1,0 -2,-2 -2,-3l-62 -180 0 0 0 180c0,1 0,3 -1,3 0,1 -2,2 -3,3 -2,0 -4,1 -7,1 -3,0 -6,1 -10,1 -4,0 -8,-1 -11,-1 -2,0 -5,-1 -6,-1 -2,-1 -3,-2 -4,-3 0,0 -1,-2 -1,-3l0 -197c0,-5 2,-10 5,-13 3,-3 7,-5 12,-5l30 0c5,0 10,1 13,2 4,1 7,2 10,4 3,2 5,5 7,8 2,3 3,7 5,12l47 132 1 0 49 -132c2,-5 3,-9 5,-12 2,-3 4,-6 6,-8 3,-2 5,-3 9,-4 3,-1 7,-2 11,-2l30 0c3,0 6,1 8,2 2,0 4,2 5,3 2,2 3,4 4,6 1,2 1,5 1,7l0 197zm96 -18c0,10 -2,17 -5,21 -4,4 -11,6 -20,6 -10,0 -17,-2 -20,-6 -4,-3 -6,-10 -6,-20 0,-11 2,-18 6,-22 4,-3 10,-5 20,-5 9,0 16,2 20,5 3,4 5,11 5,21zm303 18c0,1 0,3 -1,3 -1,1 -2,2 -3,3 -2,0 -4,1 -7,1 -3,0 -6,1 -10,1 -4,0 -8,-1 -11,-1 -2,0 -5,-1 -6,-1 -2,-1 -3,-2 -4,-3 0,0 -1,-2 -1,-3l0 -180 0 0 -64 180c0,2 -1,3 -2,4 -1,1 -2,2 -4,2 -2,1 -4,1 -7,1 -3,0 -6,1 -10,1 -4,0 -7,-1 -10,-1 -2,0 -5,-1 -7,-1 -1,-1 -3,-2 -4,-3 -1,0 -1,-2 -2,-3l-61 -180 -1 0 0 180c0,1 0,3 -1,3 0,1 -1,2 -3,3 -2,0 -4,1 -7,1 -2,0 -6,1 -10,1 -4,0 -8,-1 -10,-1 -3,0 -5,-1 -7,-1 -2,-1 -3,-2 -3,-3 -1,0 -1,-2 -1,-3l0 -197c0,-5 1,-10 4,-13 3,-3 7,-5 13,-5l29 0c5,0 10,1 13,2 4,1 8,2 10,4 3,2 5,5 7,8 2,3 4,7 5,12l48 132 0 0 50 -132c1,-5 3,-9 4,-12 2,-3 4,-6 7,-8 2,-2 5,-3 8,-4 3,-1 7,-2 11,-2l30 0c3,0 6,1 8,2 2,0 4,2 6,3 1,2 2,4 3,6 1,2 1,5 1,7l0 197zm247 -107c0,19 -2,35 -7,50 -4,14 -11,26 -20,36 -9,10 -20,18 -33,23 -14,6 -29,8 -47,8 -17,0 -32,-2 -44,-6 -13,-5 -24,-12 -33,-21 -8,-9 -14,-21 -19,-35 -4,-14 -6,-31 -6,-51 0,-18 2,-34 7,-48 4,-14 11,-26 20,-36 9,-10 20,-18 33,-23 14,-6 29,-8 47,-8 16,0 31,2 44,6 13,5 23,11 32,21 9,9 15,21 19,35 5,14 7,30 7,49zm-47 3c0,-12 -1,-23 -3,-32 -2,-10 -5,-18 -9,-24 -5,-7 -10,-12 -18,-16 -7,-4 -16,-6 -27,-6 -11,0 -20,2 -28,7 -7,4 -13,9 -18,16 -4,7 -7,15 -9,25 -2,9 -3,19 -3,29 0,12 1,23 3,33 2,9 5,17 9,24 4,7 10,12 17,16 8,3 17,5 28,5 11,0 20,-2 27,-6 8,-4 14,-10 18,-17 5,-7 8,-15 10,-24 2,-10 3,-20 3,-30zm267 95c0,2 0,5 -1,7 -1,2 -2,4 -4,5 -1,1 -3,2 -5,3 -2,1 -5,1 -7,1l-19 0c-4,0 -7,-1 -10,-1 -3,-1 -6,-3 -8,-5 -3,-2 -5,-5 -7,-8 -3,-4 -5,-8 -8,-14l-55 -104c-3,-6 -6,-12 -10,-20 -3,-7 -6,-14 -9,-20l0 0c1,8 1,16 1,24 0,8 1,17 1,25l0 116c0,1 -1,2 -1,3 -1,1 -2,2 -4,3 -1,0 -3,1 -6,1 -3,0 -6,1 -10,1 -4,0 -7,-1 -10,-1 -3,0 -5,-1 -6,-1 -2,-1 -3,-2 -3,-3 -1,-1 -1,-2 -1,-3l0 -199c0,-5 2,-9 5,-12 3,-2 7,-4 11,-4l24 0c5,0 8,1 11,2 3,0 6,1 8,3 2,2 5,4 7,7 2,3 4,7 6,11l43 81c3,5 5,10 7,15 3,5 5,9 7,14 3,5 5,9 7,14 2,5 4,9 6,14l1 0c-1,-8 -1,-17 -1,-25 0,-9 0,-17 0,-25l0 -104c0,-1 0,-2 1,-3 0,-1 1,-2 3,-2 2,-1 4,-2 6,-2 3,0 6,0 10,0 4,0 8,0 10,0 3,0 5,1 6,2 2,0 3,1 3,2 1,1 1,2 1,3l0 199zm195 -187c0,3 0,6 0,8 0,3 -1,5 -1,6 -1,1 -2,2 -3,3 0,1 -1,1 -2,1l-56 0 0 178c0,1 0,3 -1,3 -1,1 -2,2 -3,3 -2,0 -4,1 -7,1 -3,0 -7,1 -11,1 -5,0 -8,-1 -11,-1 -3,0 -5,-1 -7,-1 -2,-1 -3,-2 -4,-3 0,0 -1,-2 -1,-3l0 -178 -55 0c-1,0 -2,0 -3,-1 -1,-1 -1,-2 -2,-3 -1,-1 -1,-3 -1,-6 -1,-2 -1,-5 -1,-8 0,-4 0,-6 1,-9 0,-2 0,-4 1,-6 1,-1 1,-2 2,-3 1,0 2,-1 3,-1l156 0c1,0 2,1 2,1 1,1 2,2 3,3 0,2 1,4 1,6 0,3 0,5 0,9zm16 141c0,-7 1,-13 3,-18 2,-6 5,-11 9,-16 3,-5 8,-10 14,-15 5,-4 11,-9 19,-13 -4,-5 -8,-10 -11,-15 -3,-4 -5,-9 -7,-13 -2,-4 -4,-8 -5,-12 -1,-4 -1,-8 -1,-11 0,-8 1,-16 4,-23 3,-7 7,-13 13,-18 6,-5 14,-9 23,-12 10,-3 21,-5 34,-5 12,0 22,1 31,4 9,2 16,5 21,9 6,4 10,10 13,16 2,6 4,13 4,20 0,7 -1,13 -4,19 -2,6 -6,12 -10,17 -5,5 -11,10 -18,15 -7,5 -15,10 -25,15 3,3 7,7 11,11 3,4 7,8 11,12 4,4 8,7 13,11 4,4 8,8 12,11 1,-2 2,-5 4,-8 1,-3 2,-6 3,-9 1,-4 1,-7 2,-10 0,-4 1,-7 1,-10l0 -6c0,-1 0,-2 0,-3 1,-1 2,-2 3,-2 2,-1 4,-1 6,-2 3,0 7,0 11,0 4,0 7,0 10,0 2,0 4,1 6,1 1,1 2,2 3,3 1,1 1,2 1,3l0 6c0,5 0,11 -1,16 -1,6 -2,12 -4,17 -1,5 -3,10 -5,15 -3,5 -5,9 -8,14 4,3 7,5 10,7 3,2 6,4 8,5 2,1 3,2 5,3 1,0 2,0 3,0 2,0 3,0 4,0 1,0 2,1 2,2 1,0 2,2 2,4 0,2 0,5 0,9 0,4 0,7 0,10 0,2 0,4 -1,5 0,1 -1,2 -2,3 -1,1 -2,1 -5,2 -2,1 -5,1 -8,1 -2,0 -5,0 -8,-1 -2,-1 -5,-2 -9,-4 -3,-1 -7,-4 -12,-7 -5,-2 -10,-6 -16,-11 -6,4 -11,7 -17,10 -6,3 -12,5 -18,7 -6,2 -12,4 -19,5 -7,1 -14,1 -21,1 -8,0 -15,0 -22,-1 -7,-2 -14,-3 -20,-6 -6,-2 -12,-5 -17,-8 -5,-4 -9,-8 -13,-13 -4,-5 -6,-10 -8,-17 -3,-6 -4,-13 -4,-20zm66 -116c0,3 0,5 1,8 1,2 2,5 3,8 2,3 4,6 6,9 2,3 4,6 7,10 7,-4 12,-7 17,-10 4,-3 8,-6 11,-9 3,-3 4,-6 6,-9 1,-3 1,-6 1,-9 0,-3 0,-5 -1,-8 -1,-2 -3,-4 -5,-6 -2,-2 -5,-3 -8,-4 -3,-1 -7,-2 -11,-2 -5,0 -9,1 -13,2 -3,1 -6,3 -8,5 -2,2 -4,4 -5,7 -1,2 -1,5 -1,8zm-19 113c0,5 1,10 3,14 1,4 4,8 8,11 3,3 7,5 12,7 5,1 11,2 18,2 3,0 7,0 10,-1 3,-1 7,-1 10,-3 3,-1 6,-2 9,-3 3,-2 6,-4 8,-6 -5,-4 -10,-8 -15,-13 -6,-4 -11,-9 -15,-14 -5,-4 -10,-9 -15,-13 -4,-5 -8,-9 -12,-14 -4,3 -7,6 -10,8 -2,3 -4,6 -6,8 -2,3 -3,6 -4,9 -1,3 -1,6 -1,8zm394 -49c0,20 -3,37 -8,52 -6,14 -13,26 -23,35 -10,9 -22,16 -36,20 -14,4 -31,6 -51,6l-53 0c-3,0 -7,-1 -9,-3 -3,-2 -4,-6 -4,-11l0 -192c0,-5 1,-9 4,-11 2,-2 6,-4 9,-4l57 0c20,0 37,3 50,7 14,5 26,12 35,21 9,9 16,20 21,33 5,14 8,29 8,47zm-47 1c0,-10 -1,-20 -3,-29 -3,-9 -7,-17 -12,-23 -6,-7 -13,-12 -21,-16 -9,-3 -20,-5 -33,-5l-23 0 0 150 23 0c13,0 23,-2 31,-5 9,-3 16,-8 21,-14 6,-7 10,-15 13,-24 3,-10 4,-21 4,-34zm214 95c0,3 0,6 0,8 0,2 -1,4 -1,6 -1,1 -2,2 -2,3 -1,0 -2,0 -3,0l-111 0c-4,0 -7,-1 -10,-3 -2,-2 -3,-6 -3,-11l0 -192c0,-5 1,-9 3,-11 3,-2 6,-4 10,-4l110 0c1,0 2,1 3,1 1,1 1,2 2,3 1,2 1,4 1,6 1,2 1,5 1,8 0,3 0,6 -1,8 0,3 0,4 -1,6 -1,1 -1,2 -2,3 -1,0 -2,1 -3,1l-79 0 0 54 67 0c1,0 2,0 3,1 0,0 1,1 2,2 0,2 1,3 1,6 0,2 0,5 0,8 0,3 0,6 0,8 0,2 -1,4 -1,5 -1,2 -2,2 -2,3 -1,1 -2,1 -3,1l-67 0 0 62 80 0c1,0 2,0 3,1 0,1 1,2 2,3 0,1 1,3 1,5 0,3 0,5 0,9zm188 -16c0,3 0,5 0,7 0,2 -1,4 -1,5 0,2 -1,3 -1,4 -1,1 -2,2 -3,4 -1,1 -4,3 -7,5 -4,2 -8,4 -14,6 -5,1 -11,3 -17,4 -7,1 -14,2 -22,2 -15,0 -29,-2 -41,-7 -12,-5 -22,-12 -31,-21 -9,-9 -15,-21 -20,-35 -4,-14 -6,-30 -6,-48 0,-19 2,-36 7,-50 5,-15 12,-27 21,-37 9,-10 20,-17 32,-22 13,-6 27,-8 42,-8 6,0 12,0 18,1 5,1 11,3 16,5 4,1 9,3 13,5 3,2 6,4 8,6 1,1 2,3 3,4 0,1 1,2 1,4 1,1 1,3 1,5 0,2 0,5 0,8 0,4 0,7 0,9 0,2 -1,4 -1,6 -1,1 -2,2 -2,3 -1,1 -2,1 -3,1 -2,0 -4,-1 -7,-3 -2,-2 -6,-4 -10,-7 -4,-2 -9,-4 -15,-6 -5,-2 -12,-3 -20,-3 -9,0 -17,1 -23,5 -7,4 -13,9 -18,15 -5,7 -9,15 -11,25 -3,9 -4,20 -4,31 0,13 2,25 4,34 3,10 7,17 12,24 5,6 11,10 18,13 7,3 14,5 23,5 8,0 15,-1 21,-3 6,-2 11,-4 15,-6 4,-2 7,-4 10,-6 3,-2 5,-3 6,-3 1,0 2,0 3,1 1,0 1,1 2,2 0,2 0,4 1,6 0,3 0,6 0,10zm228 -80c0,19 -2,35 -6,50 -5,14 -12,26 -21,36 -9,10 -20,18 -33,23 -13,6 -29,8 -46,8 -17,0 -32,-2 -45,-6 -13,-5 -24,-12 -32,-21 -9,-9 -15,-21 -19,-35 -5,-14 -7,-31 -7,-51 0,-18 2,-34 7,-48 5,-14 11,-26 20,-36 9,-10 20,-18 34,-23 13,-6 28,-8 46,-8 17,0 31,2 44,6 13,5 24,11 32,21 9,9 15,21 20,35 4,14 6,30 6,49zm-47 3c0,-12 -1,-23 -3,-32 -1,-10 -4,-18 -9,-24 -4,-7 -10,-12 -17,-16 -8,-4 -17,-6 -28,-6 -11,0 -20,2 -27,7 -8,4 -14,9 -18,16 -5,7 -8,15 -10,25 -2,9 -3,19 -3,29 0,12 1,23 3,33 2,9 5,17 9,24 5,7 10,12 18,16 7,3 16,5 27,5 11,0 20,-2 28,-6 7,-4 13,-10 18,-17 4,-7 8,-15 9,-24 2,-10 3,-20 3,-30z"/>
  <path class="fil4" d="M3134 460c0,0 -1,0 -1,1 0,0 0,0 0,0 0,0 -1,0 -1,0 -1,0 -1,0 -2,0 0,0 -1,0 -1,0 -1,0 -1,0 -1,0 -1,0 -1,0 -1,0 0,-1 0,-1 0,-1l0 -5c-2,2 -4,4 -7,5 -2,1 -4,2 -7,2 -3,0 -6,-1 -8,-2 -2,-1 -4,-3 -5,-5 -1,-2 -2,-4 -3,-6 0,-3 -1,-6 -1,-9 0,-3 1,-6 1,-9 1,-3 2,-5 4,-7 1,-2 3,-4 5,-5 2,-1 5,-2 8,-2 2,0 4,1 6,2 2,1 4,3 6,5l0 -24c0,0 0,0 0,0 0,-1 1,-1 1,-1 0,0 1,0 1,0 0,0 1,0 2,0 0,0 1,0 2,0 0,0 0,0 1,0 0,0 0,0 0,1 0,0 1,0 1,0l0 60zm-8 -29c-2,-2 -4,-4 -6,-5 -2,-2 -4,-2 -6,-2 -1,0 -3,0 -4,1 -2,1 -3,2 -4,4 0,1 -1,3 -1,5 -1,2 -1,3 -1,5 0,2 0,4 1,6 0,2 0,4 1,5 1,2 2,3 3,4 2,1 3,1 5,1 1,0 2,0 3,0 1,0 2,-1 3,-1 1,-1 2,-2 3,-3 1,-1 2,-2 3,-3l0 -17zm52 29c0,0 0,1 -1,1 0,0 0,0 -1,0 0,0 -1,0 -2,0 0,0 -1,0 -1,0 -1,0 -1,0 -1,0 -1,0 -1,-1 -1,-1l0 -4c-1,2 -3,3 -6,4 -2,1 -4,2 -6,2 -3,0 -5,0 -6,-1 -2,-1 -3,-1 -5,-2 -1,-1 -2,-3 -3,-4 0,-2 -1,-4 -1,-5 0,-3 1,-5 2,-6 1,-2 2,-3 4,-5 2,-1 4,-2 6,-2 3,-1 6,-1 9,-1l5 0 0 -3c0,-2 0,-3 0,-4 -1,-1 -1,-2 -2,-3 -1,-1 -1,-2 -3,-2 -1,0 -2,-1 -4,-1 -2,0 -3,1 -5,1 -1,1 -3,1 -4,2 -1,0 -2,1 -2,1 -1,0 -2,1 -2,1 0,0 0,0 -1,-1 0,0 0,0 0,0 0,0 0,-1 0,-1 0,0 0,-1 0,-1 0,-1 0,-2 0,-2 0,0 0,-1 0,-1 1,-1 2,-1 3,-2 0,0 2,-1 3,-1 1,0 3,-1 4,-1 2,0 3,-1 5,-1 3,0 5,1 7,1 2,1 4,2 5,3 1,2 2,3 3,5 0,2 1,4 1,7l0 27zm-8 -19l-6 0c-2,0 -4,1 -5,1 -2,0 -3,1 -4,1 -1,1 -2,2 -2,3 -1,1 -1,2 -1,3 0,2 1,4 2,5 1,1 3,2 6,2 2,0 3,0 5,-1 2,-1 3,-3 5,-5l0 -9zm58 -2c0,4 0,7 -1,10 0,2 -2,5 -3,7 -2,2 -3,3 -6,4 -2,1 -4,2 -7,2 -1,0 -2,0 -3,-1 -1,0 -2,0 -3,-1 -1,0 -2,-1 -3,-2 -1,0 -2,-1 -3,-2l0 20c0,0 0,0 0,1 -1,0 -1,0 -1,0 0,0 -1,0 -1,0 -1,0 -1,0 -2,0 -1,0 -1,0 -2,0 0,0 -1,0 -1,0 0,0 0,0 -1,0 0,-1 0,-1 0,-1l0 -57c0,0 0,0 0,0 1,0 1,0 1,-1 0,0 1,0 1,0 0,0 1,0 2,0 0,0 1,0 1,0 0,0 1,0 1,0 0,1 1,1 1,1 0,0 0,0 0,0l0 6c1,-1 2,-2 3,-3 1,-1 3,-2 4,-3 1,0 2,-1 3,-1 2,0 3,-1 4,-1 3,0 6,1 8,2 2,1 3,3 5,5 1,2 2,4 3,7 0,2 0,5 0,8zm-7 1c0,-2 0,-4 -1,-6 0,-2 -1,-4 -1,-5 -1,-2 -2,-3 -3,-4 -2,-1 -3,-1 -5,-1 -1,0 -2,0 -3,0 -1,0 -2,1 -3,2 -1,0 -2,1 -3,2 -1,1 -2,2 -3,4l0 16c2,2 4,4 6,6 1,1 3,1 5,1 2,0 4,0 5,-1 1,-1 2,-2 3,-3 1,-2 2,-4 2,-6 0,-1 1,-3 1,-5zm39 17c0,1 0,1 0,2 0,0 0,1 -1,1 0,0 0,1 -1,1 0,0 -1,0 -1,0 -1,0 -2,1 -2,1 -1,0 -2,0 -2,0 -2,0 -4,-1 -6,-1 -1,-1 -2,-1 -3,-3 -1,-1 -2,-2 -2,-4 -1,-2 -1,-4 -1,-6l0 -23 -6 0c0,0 -1,-1 -1,-1 0,-1 0,-1 0,-3 0,0 0,-1 0,-1 0,0 0,-1 0,-1 0,0 0,0 1,0 0,-1 0,-1 0,-1l6 0 0 -9c0,0 0,-1 0,-1 0,0 0,0 1,0 0,0 0,-1 1,-1 0,0 1,0 2,0 0,0 1,0 1,0 1,0 1,1 2,1 0,0 0,0 0,0 0,0 0,1 0,1l0 9 11 0c0,0 0,0 0,1 0,0 1,0 1,0 0,0 0,1 0,1 0,0 0,1 0,1 0,2 0,2 0,3 -1,0 -1,1 -1,1l-11 0 0 22c0,3 1,5 2,6 0,2 2,2 4,2 1,0 1,0 2,0 0,0 1,0 1,0 1,0 1,-1 1,-1 1,0 1,0 1,0 0,0 0,0 1,0 0,0 0,0 0,1 0,0 0,0 0,1 0,0 0,0 0,1zm39 3c0,0 0,1 0,1 0,0 -1,0 -1,0 0,0 -1,0 -2,0 -1,0 -1,0 -2,0 0,0 -1,0 -1,0 0,0 0,-1 0,-1l0 -4c-2,2 -4,3 -6,4 -2,1 -4,2 -7,2 -2,0 -4,0 -6,-1 -1,-1 -3,-1 -4,-2 -1,-1 -2,-3 -3,-4 -1,-2 -1,-4 -1,-5 0,-3 1,-5 1,-6 1,-2 3,-3 4,-5 2,-1 4,-2 7,-2 2,-1 5,-1 8,-1l6 0 0 -3c0,-2 0,-3 -1,-4 0,-1 0,-2 -1,-3 -1,-1 -2,-2 -3,-2 -1,0 -3,-1 -4,-1 -2,0 -4,1 -5,1 -2,1 -3,1 -4,2 -1,0 -2,1 -3,1 -1,0 -1,1 -1,1 -1,0 -1,0 -1,-1 0,0 0,0 -1,0 0,0 0,-1 0,-1 0,0 0,-1 0,-1 0,-1 0,-2 0,-2 0,0 1,-1 1,-1 0,-1 1,-1 2,-2 1,0 2,-1 4,-1 1,0 2,-1 4,-1 1,0 3,-1 4,-1 3,0 6,1 8,1 2,1 3,2 5,3 1,2 2,3 2,5 1,2 1,4 1,7l0 27zm-7 -19l-6 0c-2,0 -4,1 -6,1 -1,0 -2,1 -3,1 -1,1 -2,2 -3,3 0,1 0,2 0,3 0,2 0,4 2,5 1,1 3,2 5,2 2,0 4,0 6,-1 1,-1 3,-3 5,-5l0 -9zm50 13c0,0 0,1 0,1 0,0 0,1 0,1 0,0 0,0 -1,1 0,0 0,0 0,0 -1,1 -1,1 -2,2 -1,0 -2,1 -3,1 -1,1 -3,1 -4,1 -1,1 -3,1 -4,1 -3,0 -5,-1 -8,-2 -2,-1 -4,-2 -5,-4 -2,-2 -3,-4 -4,-7 -1,-2 -1,-5 -1,-9 0,-4 1,-7 1,-10 1,-3 3,-5 4,-7 2,-2 4,-3 6,-4 3,-1 5,-1 8,-1 1,0 2,0 4,0 1,0 2,0 3,1 1,0 2,1 3,1 1,1 1,1 1,1 1,1 1,1 1,1 0,1 0,1 1,1 0,0 0,1 0,1 0,0 0,1 0,1 0,2 0,2 -1,3 0,0 0,1 -1,1 0,0 -1,-1 -1,-1 -1,-1 -2,-1 -2,-2 -1,0 -2,-1 -4,-1 -1,-1 -2,-1 -4,-1 -4,0 -7,1 -8,4 -2,3 -3,7 -3,12 0,2 0,5 0,7 1,2 2,3 3,5 1,1 2,2 3,2 2,1 3,1 5,1 2,0 3,0 4,0 2,-1 3,-2 4,-2 1,-1 2,-1 2,-2 1,0 1,-1 2,-1 0,0 0,0 0,0 0,1 1,1 1,1 0,0 0,1 0,1 0,1 0,1 0,2zm17 6c0,0 0,0 0,0 0,1 0,1 -1,1 0,0 0,0 -1,0 0,0 -1,0 -2,0 0,0 -1,0 -1,0 -1,0 -1,0 -2,0 0,0 0,0 0,-1 0,0 0,0 0,0l0 -41c0,0 0,0 0,0 0,0 0,0 0,-1 1,0 1,0 2,0 0,0 1,0 1,0 1,0 2,0 2,0 1,0 1,0 1,0 1,1 1,1 1,1 0,0 0,0 0,0l0 41zm1 -54c0,2 0,3 -1,3 -1,1 -2,1 -4,1 -1,0 -3,0 -3,-1 -1,0 -1,-1 -1,-3 0,-2 0,-3 1,-4 0,0 2,-1 3,-1 2,0 3,1 4,1 1,1 1,2 1,4zm21 56c0,3 0,5 -1,7 0,2 -1,3 -2,5 -1,1 -2,2 -3,2 -2,1 -4,1 -6,1 -1,0 -2,0 -2,0 -1,0 -1,0 -2,0 0,0 0,-1 0,-1 -1,0 -1,0 -1,0 0,-1 0,-1 0,-1 0,0 0,-1 0,-1 0,-1 0,-1 0,-2 0,0 0,0 0,-1 1,0 1,0 1,0 0,0 0,0 0,0 0,0 1,0 1,0 1,0 1,0 2,0 1,0 2,0 3,0 0,-1 1,-1 1,-2 1,-1 1,-1 1,-2 1,-2 1,-3 1,-5l0 -43c0,0 0,0 0,0 0,0 0,0 0,-1 1,0 1,0 2,0 0,0 1,0 1,0 1,0 2,0 2,0 1,0 1,0 1,0 1,1 1,1 1,1 0,0 0,0 0,0l0 43zm1 -56c0,2 0,3 -1,3 -1,1 -2,1 -4,1 -1,0 -3,0 -3,-1 -1,0 -1,-1 -1,-3 0,-2 0,-3 1,-4 0,0 2,-1 3,-1 2,0 3,1 4,1 1,1 1,2 1,4zm47 32c0,1 0,2 -1,2 0,1 -1,1 -2,1l-26 0c0,2 0,4 0,6 1,2 2,4 3,5 1,1 2,2 4,3 1,1 4,1 6,1 2,0 4,0 5,-1 2,0 3,0 4,-1 1,0 2,0 3,-1 0,0 1,0 1,0 0,0 1,0 1,0 0,0 0,0 0,0 0,1 0,1 0,1 0,1 0,1 0,2 0,0 0,0 0,1 0,0 0,0 0,0 0,1 0,1 0,1 0,0 0,0 0,1 0,0 -1,0 -2,0 -1,1 -2,1 -3,1 -1,1 -3,1 -4,1 -2,1 -4,1 -6,1 -3,0 -6,-1 -8,-2 -3,0 -5,-2 -7,-4 -1,-2 -3,-4 -4,-7 0,-2 -1,-6 -1,-9 0,-4 1,-7 1,-10 1,-2 3,-5 4,-7 2,-2 4,-3 6,-4 3,-1 6,-2 8,-2 4,0 6,1 9,2 2,1 4,2 5,4 1,2 3,4 3,6 1,2 1,5 1,8l0 1zm-7 -2c0,-4 -1,-7 -3,-9 -2,-3 -4,-4 -8,-4 -2,0 -3,1 -5,1 -1,1 -2,2 -3,3 -1,1 -2,2 -2,4 -1,1 -1,3 -1,5l22 0zm-832 -14c0,1 0,1 0,2 0,0 0,1 0,1 0,0 0,0 0,0 -1,1 -1,1 -1,1 0,0 -1,0 -1,-1 0,0 -1,0 -1,0 0,0 -1,0 -1,0 -1,-1 -2,-1 -2,-1 -1,0 -2,1 -2,1 -1,0 -2,1 -3,1 0,1 -1,2 -2,3 -1,1 -2,3 -3,4l0 27c0,0 0,0 0,0 0,1 -1,1 -1,1 0,0 0,0 -1,0 0,0 -1,0 -2,0 -1,0 -1,0 -2,0 0,0 0,0 -1,0 0,0 0,0 0,-1 0,0 0,0 0,0l0 -41c0,0 0,0 0,0 0,0 0,0 0,-1 0,0 1,0 1,0 1,0 1,0 2,0 1,0 1,0 2,0 0,0 0,0 1,0 0,1 0,1 0,1 0,0 0,0 0,0l0 6c1,-1 2,-3 3,-4 1,-1 2,-1 3,-2 1,-1 2,-1 3,-1 1,0 1,-1 2,-1 1,0 1,0 2,0 0,1 1,1 1,1 1,0 1,0 2,0 0,0 0,0 1,1 0,0 0,0 0,0 0,0 0,0 0,1 0,0 0,0 0,0 0,1 0,1 0,2zm42 16c0,1 -1,2 -1,2 -1,1 -1,1 -2,1l-27 0c0,2 1,4 1,6 0,2 1,4 2,5 1,1 3,2 4,3 2,1 4,1 6,1 2,0 4,0 6,-1 1,0 2,0 3,-1 2,0 2,0 3,-1 1,0 1,0 2,0 0,0 0,0 0,0 0,0 1,0 1,0 0,1 0,1 0,1 0,1 0,1 0,2 0,0 0,0 0,1 0,0 0,0 0,0 0,1 0,1 0,1 -1,0 -1,0 -1,1 0,0 0,0 -1,0 -1,1 -2,1 -3,1 -2,1 -3,1 -5,1 -2,1 -3,1 -5,1 -4,0 -6,-1 -9,-2 -2,0 -5,-2 -6,-4 -2,-2 -3,-4 -4,-7 -1,-2 -1,-6 -1,-9 0,-4 0,-7 1,-10 1,-2 2,-5 4,-7 2,-2 4,-3 6,-4 2,-1 5,-2 8,-2 3,0 6,1 8,2 2,1 4,2 6,4 1,2 2,4 3,6 0,2 1,5 1,8l0 1zm-8 -2c0,-4 0,-7 -2,-9 -2,-3 -5,-4 -8,-4 -2,0 -4,1 -5,1 -2,1 -3,2 -4,3 -1,1 -1,2 -2,4 0,1 -1,3 -1,5l22 0zm54 24c0,0 0,0 0,0 0,1 -1,1 -1,1 0,0 -1,0 -1,0 -1,0 -1,0 -2,0 -1,0 -1,0 -2,0 0,0 -1,0 -1,0 0,0 0,0 0,-1 -1,0 -1,0 -1,0l0 -24c0,-2 0,-4 0,-5 -1,-2 -1,-3 -2,-4 0,-1 -1,-2 -2,-2 -1,-1 -3,-1 -4,-1 -2,0 -4,1 -6,2 -2,1 -3,3 -5,6l0 28c0,0 -1,0 -1,0 0,1 0,1 0,1 -1,0 -1,0 -1,0 -1,0 -1,0 -2,0 -1,0 -2,0 -2,0 -1,0 -1,0 -1,0 0,0 -1,0 -1,-1 0,0 0,0 0,0l0 -41c0,0 0,0 0,0 0,0 0,0 1,-1 0,0 0,0 1,0 0,0 1,0 1,0 1,0 2,0 2,0 1,0 1,0 1,0 0,1 1,1 1,1 0,0 0,0 0,0l0 6c2,-3 4,-5 7,-6 2,-1 4,-2 6,-2 3,0 5,1 7,2 2,1 4,2 5,3 1,2 2,4 2,6 1,2 1,4 1,7l0 25zm51 -21c0,3 -1,7 -1,9 -1,3 -3,5 -4,7 -2,2 -4,4 -7,5 -2,1 -5,2 -9,2 -3,0 -6,-1 -8,-2 -3,-1 -5,-2 -7,-4 -1,-2 -2,-4 -3,-7 -1,-3 -1,-6 -1,-9 0,-3 0,-6 1,-9 1,-3 2,-5 4,-7 1,-2 4,-4 6,-5 3,-1 6,-2 9,-2 3,0 6,1 9,2 2,1 4,2 6,4 2,2 3,4 4,7 0,3 1,6 1,9zm-8 1c0,-3 0,-5 0,-7 -1,-1 -2,-3 -2,-5 -1,-1 -3,-2 -4,-3 -2,-1 -4,-1 -6,-1 -2,0 -4,0 -6,1 -1,1 -3,2 -4,3 -1,1 -2,3 -2,5 -1,2 -1,4 -1,6 0,3 0,5 1,7 0,2 1,3 2,5 1,1 2,2 4,3 1,1 3,2 6,2 2,0 4,-1 5,-2 2,0 3,-1 4,-3 1,-1 2,-3 2,-5 1,-2 1,-4 1,-6zm52 -21c0,0 0,1 0,1 0,0 -1,0 -1,0 0,0 0,0 0,1 0,0 0,0 0,0l-14 39c0,0 0,0 0,0 0,1 -1,1 -1,1 0,0 -1,0 -1,0 -1,0 -2,0 -3,0 -1,0 -1,0 -2,0 -1,0 -1,0 -1,0 -1,0 -1,0 -1,-1 0,0 -1,0 -1,0l-13 -39c-1,0 -1,0 -1,-1 0,0 0,0 0,0 0,0 0,-1 0,-1 0,0 0,0 0,0 0,0 1,-1 1,-1 0,0 1,0 1,0 0,0 1,0 2,0 1,0 1,0 2,0 0,0 1,0 1,0 0,1 1,1 1,1 0,0 0,0 0,1l11 33 1 0 0 0 11 -33c0,-1 0,-1 0,-1 0,0 1,0 1,-1 0,0 1,0 1,0 1,0 1,0 2,0 1,0 1,0 2,0 0,0 1,0 1,0 0,0 0,1 0,1 0,0 1,0 1,0zm15 41c0,0 0,0 0,0 0,1 0,1 0,1 -1,0 -1,0 -1,0 -1,0 -2,0 -2,0 -1,0 -2,0 -2,0 -1,0 -1,0 -1,0 -1,0 -1,0 -1,-1 0,0 0,0 0,0l0 -41c0,0 0,0 0,0 0,0 0,0 1,-1 0,0 0,0 1,0 0,0 1,0 2,0 0,0 1,0 2,0 0,0 0,0 1,0 0,1 0,1 0,1 0,0 0,0 0,0l0 41zm1 -54c0,2 0,3 -1,3 0,1 -2,1 -3,1 -2,0 -3,0 -4,-1 -1,0 -1,-1 -1,-3 0,-2 0,-3 1,-4 1,0 2,-1 4,-1 1,0 3,1 3,1 1,1 1,2 1,4zm37 16c0,1 0,1 0,2 0,0 0,1 -1,1 0,0 0,0 0,0 0,1 0,1 0,1 -1,0 -1,0 -1,-1 -1,0 -1,0 -1,0 -1,0 -1,0 -2,0 0,-1 -1,-1 -2,-1 0,0 -1,1 -2,1 -1,0 -1,1 -2,1 -1,1 -2,2 -3,3 0,1 -1,3 -2,4l0 27c0,0 -1,0 -1,0 0,1 0,1 0,1 -1,0 -1,0 -1,0 -1,0 -1,0 -2,0 -1,0 -2,0 -2,0 -1,0 -1,0 -1,0 0,0 -1,0 -1,-1 0,0 0,0 0,0l0 -41c0,0 0,0 0,0 0,0 0,0 1,-1 0,0 0,0 1,0 0,0 1,0 1,0 1,0 2,0 2,0 1,0 1,0 1,0 0,1 1,1 1,1 0,0 0,0 0,0l0 6c1,-1 2,-3 3,-4 1,-1 2,-1 3,-2 1,-1 1,-1 2,-1 1,0 2,-1 3,-1 0,0 1,0 1,0 1,1 1,1 2,1 0,0 1,0 1,0 1,0 1,0 1,1 0,0 0,0 0,0 0,0 1,0 1,1 0,0 0,0 0,0 0,1 0,1 0,2zm37 38c0,0 0,1 -1,1 0,0 0,0 -1,0 0,0 -1,0 -2,0 0,0 -1,0 -1,0 -1,0 -1,0 -1,0 -1,0 -1,-1 -1,-1l0 -4c-1,2 -3,3 -6,4 -2,1 -4,2 -7,2 -2,0 -4,0 -5,-1 -2,-1 -3,-1 -5,-2 -1,-1 -2,-3 -3,-4 0,-2 -1,-4 -1,-5 0,-3 1,-5 2,-6 1,-2 2,-3 4,-5 2,-1 4,-2 6,-2 3,-1 6,-1 9,-1l5 0 0 -3c0,-2 0,-3 0,-4 -1,-1 -1,-2 -2,-3 -1,-1 -1,-2 -3,-2 -1,0 -2,-1 -4,-1 -2,0 -3,1 -5,1 -1,1 -3,1 -4,2 -1,0 -2,1 -2,1 -1,0 -2,1 -2,1 0,0 0,0 -1,-1 0,0 0,0 0,0 0,0 0,-1 0,-1 0,0 -1,-1 -1,-1 0,-1 1,-2 1,-2 0,0 0,-1 0,-1 1,-1 2,-1 2,-2 1,0 3,-1 4,-1 1,0 3,-1 4,-1 2,0 3,-1 5,-1 3,0 5,1 7,1 2,1 4,2 5,3 1,2 2,3 3,5 0,2 1,4 1,7l0 27zm-8 -19l-6 0c-2,0 -4,1 -5,1 -2,0 -3,1 -4,1 -1,1 -2,2 -2,3 -1,1 -1,2 -1,3 0,2 1,4 2,5 1,1 3,2 6,2 2,0 3,0 5,-1 2,-1 3,-3 5,-5l0 -9zm56 19c0,0 0,0 0,0 0,1 0,1 -1,1 0,0 0,0 -1,0 0,0 -1,0 -2,0 0,0 -1,0 -2,0 0,0 0,0 -1,0 0,0 0,0 0,-1 0,0 0,0 0,0l0 -24c0,-2 -1,-4 -1,-5 0,-2 -1,-3 -2,-4 0,-1 -1,-2 -2,-2 -1,-1 -3,-1 -4,-1 -2,0 -4,1 -5,2 -2,1 -4,3 -6,6l0 28c0,0 0,0 0,0 -1,1 -1,1 -1,1 0,0 -1,0 -1,0 -1,0 -1,0 -2,0 -1,0 -1,0 -2,0 0,0 -1,0 -1,0 0,0 0,0 -1,-1 0,0 0,0 0,0l0 -41c0,0 0,0 0,0 0,0 1,0 1,-1 0,0 1,0 1,0 0,0 1,0 2,0 0,0 1,0 1,0 1,0 1,0 1,0 1,1 1,1 1,1 0,0 0,0 0,0l0 6c2,-3 5,-5 7,-6 2,-1 4,-2 7,-2 2,0 5,1 6,2 2,1 4,2 5,3 1,2 2,4 2,6 1,2 1,4 1,7l0 25zm22 2c0,3 0,5 -1,7 0,2 -1,3 -2,5 -1,1 -2,2 -4,2 -1,1 -3,1 -5,1 -1,0 -2,0 -2,0 -1,0 -2,0 -2,0 0,0 -1,-1 -1,-1 0,0 0,0 0,0 0,-1 0,-1 0,-1 0,0 0,-1 0,-1 0,-1 0,-1 0,-2 0,0 0,0 0,-1 0,0 0,0 0,0 1,0 1,0 1,0 0,0 0,0 1,0 1,0 1,0 2,0 1,0 2,0 2,0 1,-1 2,-1 2,-2 1,-1 1,-1 1,-2 0,-2 0,-3 0,-5l0 -43c0,0 0,0 1,0 0,0 0,0 0,-1 0,0 1,0 1,0 1,0 1,0 2,0 1,0 1,0 2,0 0,0 1,0 1,0 0,1 1,1 1,1 0,0 0,0 0,0l0 43zm1 -56c0,2 -1,3 -1,3 -1,1 -2,1 -4,1 -2,0 -3,0 -4,-1 0,0 0,-1 0,-3 0,-2 0,-3 1,-4 0,0 1,-1 3,-1 2,0 3,1 4,1 0,1 1,2 1,4zm47 32c0,1 0,2 -1,2 -1,1 -1,1 -2,1l-26 0c0,2 0,4 0,6 1,2 1,4 2,5 1,1 3,2 5,3 1,1 3,1 6,1 2,0 3,0 5,-1 1,0 3,0 4,-1 1,0 2,0 2,-1 1,0 2,0 2,0 0,0 0,0 1,0 0,0 0,0 0,0 0,1 0,1 0,1 0,1 0,1 0,2 0,0 0,0 0,1 0,0 0,0 0,0 0,1 0,1 0,1 0,0 0,0 -1,1 0,0 0,0 -1,0 -1,1 -2,1 -3,1 -1,1 -3,1 -5,1 -1,1 -3,1 -5,1 -3,0 -6,-1 -9,-2 -2,0 -4,-2 -6,-4 -2,-2 -3,-4 -4,-7 -1,-2 -1,-6 -1,-9 0,-4 0,-7 1,-10 1,-2 2,-5 4,-7 2,-2 4,-3 6,-4 3,-1 5,-2 8,-2 3,0 6,1 8,2 2,1 4,2 6,4 1,2 2,4 3,6 1,2 1,5 1,8l0 1zm-8 -2c1,-4 0,-7 -2,-9 -2,-3 -5,-4 -8,-4 -2,0 -4,1 -5,1 -1,1 -3,2 -3,3 -1,1 -2,2 -3,4 0,1 0,3 0,5l21 0zm47 24c0,0 0,0 0,0 0,1 0,1 0,1 -1,0 -1,0 -1,0 -1,0 -1,0 -2,0 -1,0 -2,0 -2,0 -1,0 -1,0 -1,0 0,0 -1,0 -1,-1 0,0 0,0 0,0l0 -41c0,0 0,0 0,0 0,0 1,0 1,-1 0,0 0,0 1,0 0,0 1,0 2,0 1,0 1,0 2,0 0,0 0,0 1,0 0,1 0,1 0,1 0,0 0,0 0,0l0 41zm1 -54c0,2 0,3 -1,3 0,1 -2,1 -3,1 -2,0 -3,0 -4,-1 -1,0 -1,-1 -1,-3 0,-2 0,-3 1,-4 1,0 2,-1 4,-1 2,0 3,1 3,1 1,1 1,2 1,4zm64 54c0,0 0,1 0,1 0,0 -1,0 -1,0 0,0 -1,0 -2,0 -1,0 -1,0 -2,0 0,0 0,0 -1,0 0,0 0,-1 0,-1l0 -4c-2,2 -4,3 -6,4 -2,1 -4,2 -7,2 -2,0 -4,0 -6,-1 -1,-1 -3,-1 -4,-2 -1,-1 -2,-3 -3,-4 0,-2 -1,-4 -1,-5 0,-3 1,-5 2,-6 0,-2 2,-3 4,-5 1,-1 3,-2 6,-2 2,-1 5,-1 8,-1l6 0 0 -3c0,-2 0,-3 0,-4 -1,-1 -1,-2 -2,-3 -1,-1 -2,-2 -3,-2 -1,0 -3,-1 -4,-1 -2,0 -4,1 -5,1 -2,1 -3,1 -4,2 -1,0 -2,1 -3,1 0,0 -1,1 -1,1 -1,0 -1,0 -1,-1 0,0 0,0 0,0 -1,0 -1,-1 -1,-1 0,0 0,-1 0,-1 0,-1 0,-2 0,-2 0,0 1,-1 1,-1 1,-1 1,-1 2,-2 1,0 2,-1 4,-1 1,0 2,-1 4,-1 1,0 3,-1 4,-1 3,0 6,1 8,1 2,1 4,2 5,3 1,2 2,3 2,5 1,2 1,4 1,7l0 27zm-7 -19l-6 0c-2,0 -4,1 -6,1 -1,0 -2,1 -3,1 -1,1 -2,2 -3,3 0,1 0,2 0,3 0,2 0,4 2,5 1,1 3,2 5,2 2,0 4,0 6,-1 1,-1 3,-3 5,-5l0 -9z"/>
 </g>
</svg>
