<?xml version="1.0" encoding="UTF-8"?>
<!DOCTYPE svg PUBLIC "-//W3C//DTD SVG 1.1//EN" "http://www.w3.org/Graphics/SVG/1.1/DTD/svg11.dtd">
<!-- Creator: CorelDRAW X7 -->
<svg xmlns="http://www.w3.org/2000/svg" xml:space="preserve" width="273px" height="158px" version="1.1" style="shape-rendering:geometricPrecision; text-rendering:geometricPrecision; image-rendering:optimizeQuality; fill-rule:evenodd; clip-rule:evenodd"
viewBox="0 0 184 107"
 xmlns:xlink="http://www.w3.org/1999/xlink">
 <defs>
  <style type="text/css">
   <![CDATA[
    .str0 {stroke:#2F70C1;stroke-width:1.99534}
    .str1 {stroke:#2F70C1;stroke-width:0.798136}
    .str2 {stroke:#2F70C1;stroke-width:0.399068}
    .str3 {stroke:#2F70C1;stroke-width:0.30409}
    .fil1 {fill:none}
    .fil3 {fill:#224582}
    .fil4 {fill:#2F70C1}
    .fil2 {fill:white}
    .fil0 {fill:#2F70C1;fill-rule:nonzero}
   ]]>
  </style>
 </defs>
 <g id="Layer_x0020_1">
  <metadata id="CorelCorpID_0Corel-Layer"/>
  <path class="fil0" d="M9 102c0,1 0,2 0,2 0,1 -1,1 -1,2 -1,0 -1,0 -2,0 -1,1 -1,1 -2,1 0,0 -1,0 -1,0 -1,-1 -1,-1 -1,-1 -1,0 -1,0 -1,0 0,0 -1,0 -1,0 0,-1 0,-1 0,-1 0,0 0,0 0,-1 0,0 0,0 0,0 0,0 0,-1 0,-1 0,0 0,0 0,0 0,0 0,0 0,0 1,0 1,0 1,0 0,0 0,1 1,1 0,0 0,0 1,0 0,0 1,0 1,0 0,0 1,0 1,0 0,0 1,0 1,0 0,0 0,-1 0,-1 0,0 0,0 0,-1 0,0 0,0 0,0 0,-1 0,-1 -1,-1 0,0 0,0 -1,0 0,-1 0,-1 -1,-1 0,0 0,0 -1,-1 0,0 -1,0 -1,0 0,-1 0,-1 0,-2 -1,0 -1,0 -1,-1 0,-1 0,-1 1,-2 0,0 0,-1 1,-1 0,-1 1,-1 1,-1 1,0 1,0 2,0 0,0 1,0 1,0 0,0 1,0 1,0 0,0 1,0 1,0 0,0 0,1 0,1 0,0 0,0 0,0 0,0 0,0 1,0 0,0 0,0 0,0 0,1 0,1 0,1 0,0 0,0 0,0 0,1 0,1 -1,1 0,0 0,0 0,0 0,0 0,0 0,0 0,0 0,0 0,0 0,0 -1,0 -1,0 0,-1 0,-1 -1,-1 0,0 0,0 -1,0 0,0 0,0 -1,0 0,0 0,0 0,1 0,0 -1,0 -1,0 0,0 0,0 0,1 0,0 0,0 0,0 1,1 1,1 1,1 0,0 1,0 1,1 1,0 1,0 1,0 1,0 1,0 1,1 1,0 1,0 1,1 1,0 1,0 1,1 0,0 0,1 0,1z"/>
  <path id="1" class="fil0" d="M15 105c0,1 0,1 -1,1 0,0 0,1 -1,1 -1,0 -1,-1 -1,-1 0,0 -1,0 -1,-1 0,-1 1,-1 1,-2 0,0 0,0 1,0 1,0 1,0 1,0 1,1 1,1 1,2z"/>
  <path id="2" class="fil0" d="M34 106c0,0 0,0 0,0 0,0 0,0 0,0 0,0 0,0 0,0 0,0 -1,1 -1,1 0,0 0,-1 -1,-1 0,0 0,0 0,0 0,0 0,0 0,0 0,0 0,0 0,0l0 -12 0 0 -4 12c-1,0 -1,0 -1,0 0,0 0,0 0,0 0,0 0,0 0,0 -1,0 -1,1 -1,1 0,0 0,-1 -1,-1 0,0 0,0 0,0 0,0 0,0 0,0 0,0 0,0 0,0l-4 -12 -1 0 0 12c0,0 0,0 0,0 0,0 0,0 0,0 0,0 0,0 0,0 0,0 -1,1 -1,1 0,0 0,-1 -1,-1 0,0 0,0 0,0 0,0 0,0 0,0 0,0 0,0 0,0l0 -13c0,0 0,0 0,-1 0,0 0,0 1,0l2 0c0,0 0,0 1,0 0,0 0,0 0,0 0,1 1,1 1,1 0,0 0,0 0,1l3 8 0 0 3 -8c0,-1 1,-1 1,-1 0,0 0,0 0,-1 0,0 0,0 1,0 0,0 0,0 0,0l2 0c1,0 1,0 1,0 0,0 0,0 0,0 0,0 0,1 0,1 0,0 0,0 0,0l0 13z"/>
  <path id="3" class="fil0" d="M41 105c0,1 0,1 -1,1 0,0 0,1 -1,1 -1,0 -1,-1 -1,-1 0,0 -1,0 -1,-1 0,-1 1,-1 1,-2 0,0 0,0 1,0 1,0 1,0 1,0 1,1 1,1 1,2z"/>
  <path id="4" class="fil0" d="M60 106c0,0 0,0 0,0 0,0 0,0 0,0 0,0 0,0 0,0 0,0 -1,1 -1,1 0,0 0,-1 -1,-1 0,0 0,0 0,0 0,0 0,0 0,0 0,0 0,0 0,0l0 -12 0 0 -5 12c0,0 0,0 0,0 0,0 0,0 0,0 0,0 0,0 0,0 -1,0 -1,1 -1,1 0,0 0,-1 -1,-1 0,0 0,0 0,0 0,0 0,0 0,0 0,0 0,0 0,0l-5 -12 0 0 0 12c0,0 0,0 0,0 0,0 0,0 0,0 0,0 0,0 0,0 0,0 -1,1 -1,1 0,0 0,-1 -1,-1 0,0 0,0 0,0 0,0 0,0 0,0 0,0 0,0 0,0l0 -13c0,0 0,0 0,-1 0,0 0,0 1,0l2 0c0,0 0,0 1,0 0,0 0,0 0,0 0,1 1,1 1,1 0,0 0,0 0,1l3 8 0 0 3 -8c0,-1 1,-1 1,-1 0,0 0,0 0,-1 0,0 0,0 1,0 0,0 0,0 0,0l2 0c0,0 1,0 1,0 0,0 0,0 0,0 0,0 0,1 0,1 0,0 0,0 0,0l0 13z"/>
  <path id="5" class="fil0" d="M77 99c0,1 -1,2 -1,3 0,1 -1,2 -1,3 -1,0 -2,1 -2,1 -1,1 -2,1 -3,1 -2,0 -3,0 -3,-1 -1,0 -2,0 -2,-1 -1,-1 -1,-1 -2,-2 0,-1 0,-2 0,-4 0,-1 0,-2 0,-3 1,-1 1,-2 2,-2 0,-1 1,-1 2,-2 1,0 2,0 3,0 1,0 2,0 3,0 1,1 1,1 2,2 0,0 1,1 1,2 0,1 1,2 1,3zm-4 0c0,-1 0,-1 0,-2 0,0 0,-1 0,-1 -1,-1 -1,-1 -1,-1 -1,-1 -2,-1 -2,-1 -1,0 -2,0 -2,1 -1,0 -1,0 -1,1 -1,0 -1,1 -1,1 0,1 0,2 0,2 0,1 0,2 0,2 0,1 0,1 1,2 0,0 0,1 1,1 0,0 1,0 2,0 0,0 1,0 1,0 1,0 1,-1 2,-1 0,-1 0,-1 0,-2 0,0 0,-1 0,-2z"/>
  <path id="6" class="fil0" d="M91 105c0,1 0,1 0,1 0,0 0,0 0,0 -1,0 -1,0 -1,0 0,0 0,0 0,0l-1 0c-1,0 -1,0 -1,0 0,0 -1,0 -1,0 0,0 0,0 0,0 0,-1 0,-1 -1,-1l-3 -7c0,0 -1,-1 -1,-1 0,-1 0,-1 0,-2l0 0c0,1 0,1 0,2 0,0 0,1 0,1l0 8c0,0 0,0 0,0 0,0 -1,0 -1,0 0,0 0,0 0,0 0,0 0,1 -1,1 0,0 0,-1 0,-1 -1,0 -1,0 -1,0 0,0 0,0 0,0 0,0 0,0 0,0l0 -13c0,0 0,-1 0,-1 0,0 1,0 1,0l2 0c0,0 0,0 0,0 1,0 1,0 1,0 0,0 0,1 0,1 0,0 1,0 1,1l2 5c1,0 1,0 1,1 0,0 0,0 0,1 1,0 1,0 1,1 0,0 0,0 0,0l0 0c0,0 0,-1 0,-1 0,-1 0,-1 0,-2l0 -7c0,0 0,0 0,0 0,0 0,0 1,0 0,0 0,0 0,0 0,0 0,0 1,0 0,0 0,0 0,0 0,0 1,0 1,0 0,0 0,0 0,0 0,0 0,0 0,0l0 13z"/>
  <path id="7" class="fil0" d="M104 93c0,0 0,1 0,1 0,0 -1,0 -1,0 0,0 0,0 0,0 0,0 0,0 0,0l-3 0 0 12c0,0 -1,0 -1,0 0,0 0,0 0,0 0,0 0,0 0,0 0,0 -1,1 -1,1 0,0 0,-1 -1,-1 0,0 0,0 0,0 0,0 0,0 0,0 0,0 0,0 0,0l0 -12 -4 0c0,0 0,0 0,0 0,0 0,0 0,0 0,0 0,0 0,0 0,0 0,-1 0,-1 0,0 0,0 0,0 0,0 0,-1 0,-1 0,0 0,0 0,0 0,0 0,0 0,0l10 0c0,0 0,0 0,0 0,0 0,0 0,0 0,0 1,1 1,1 0,0 0,0 0,0z"/>
  <path id="8" class="fil0" d="M105 102c0,0 0,0 0,-1 0,0 0,0 0,-1 1,0 1,0 1,-1 1,0 1,0 1,-1 0,0 0,0 0,-1 0,0 -1,0 -1,0 0,-1 0,-1 0,-1 0,0 0,-1 0,-1 0,0 0,-1 0,-1 0,-1 1,-1 1,-2 0,0 1,0 2,0 0,-1 1,-1 2,-1 1,0 1,0 2,1 0,0 1,0 1,0 1,0 1,1 1,1 0,1 0,1 0,2 0,0 0,0 0,1 0,0 0,0 -1,1 0,0 0,0 -1,1 0,0 -1,0 -1,1 0,0 0,0 0,0 0,1 1,1 1,1 0,1 1,1 1,1 0,0 0,1 1,1 0,0 0,-1 0,-1 0,0 0,0 0,0 0,-1 0,-1 0,-1 0,0 0,-1 0,-1l0 0c0,0 0,0 0,0 0,0 0,0 0,0 1,0 1,0 1,-1 0,0 0,0 1,0 0,0 0,0 0,0 0,0 0,1 1,1 0,0 0,0 0,0 0,0 0,0 0,0l0 0c0,1 0,1 0,1 0,1 0,1 0,1 -1,1 -1,1 -1,1 0,1 0,1 0,1 0,1 0,1 0,1 1,0 1,0 1,0 0,0 0,0 0,0 0,0 0,0 0,0 0,0 1,0 1,0 0,0 0,0 0,0 0,0 0,1 0,1 0,0 0,0 0,0 0,1 0,1 0,1 0,0 0,0 0,0 0,0 0,0 0,0 0,1 0,1 -1,1 0,0 0,0 0,0 0,0 0,0 -1,0 0,0 0,-1 0,-1 0,0 -1,0 -1,0 0,0 -1,-1 -1,-1 0,0 -1,1 -1,1 -1,0 -1,0 -1,0 -1,0 -1,1 -2,1 0,0 0,0 -1,0 0,0 -1,0 -1,0 -1,-1 -1,-1 -2,-1 0,0 0,0 -1,0 0,-1 0,-1 -1,-1 0,0 0,-1 0,-1 0,-1 0,-1 0,-2zm4 -7c0,0 0,0 0,0 0,1 0,1 0,1 0,0 0,0 1,0 0,1 0,1 0,1 0,0 1,0 1,-1 0,0 1,0 1,0 0,0 0,0 0,-1 0,0 0,0 0,0 0,0 0,-1 0,-1 0,0 0,0 0,0 0,0 0,0 -1,0 0,0 0,-1 0,-1 -1,0 -1,1 -1,1 0,0 -1,0 -1,0 0,0 0,0 0,0 0,1 0,1 0,1zm-1 7c0,1 0,1 0,1 0,0 0,1 0,1 1,0 1,0 1,0 0,0 1,0 1,0 1,0 1,0 1,0 0,0 0,0 1,0 0,0 0,0 0,0 0,0 1,0 1,0 -1,-1 -1,-1 -1,-1 -1,-1 -1,-1 -1,-1 -1,0 -1,-1 -1,-1 0,0 -1,-1 -1,-1 0,0 0,0 -1,1 0,0 0,0 0,0 0,0 0,1 0,1 0,0 0,0 0,0z"/>
  <path id="9" class="fil0" d="M133 99c0,1 0,2 0,3 -1,1 -1,2 -2,3 0,0 -1,1 -2,1 -1,0 -2,0 -3,0l-4 0c0,0 0,0 0,0 -1,0 -1,0 -1,0l0 -13c0,0 0,-1 1,-1 0,0 0,0 0,0l4 0c1,0 2,0 3,0 1,1 2,1 2,2 1,0 1,1 2,2 0,1 0,2 0,3zm-3 0c0,-1 0,-1 0,-2 0,0 0,-1 -1,-1 0,-1 -1,-1 -1,-1 -1,-1 -1,-1 -2,-1l-2 0 0 10 2 0c1,0 1,0 2,0 0,0 1,-1 1,-1 1,-1 1,-1 1,-2 0,0 0,-1 0,-2z"/>
  <path id="10" class="fil0" d="M144 105c0,1 0,1 0,1 0,0 0,0 0,0 0,0 0,0 0,0 0,0 0,0 0,0l-7 0c-1,0 -1,0 -1,0 0,0 0,0 0,0l0 -13c0,0 0,-1 0,-1 0,0 0,0 1,0l7 0c0,0 0,0 0,0 0,0 0,0 0,0 0,0 0,1 0,1 0,0 0,0 0,0 0,0 0,1 0,1 0,0 0,0 0,0 0,0 0,0 0,0 0,0 0,0 0,0l-5 0 0 4 4 0c0,0 0,0 0,0 0,0 0,0 0,0 0,0 0,0 0,0 0,1 0,1 0,1 0,0 0,0 0,1 0,0 0,0 0,0 0,0 0,0 0,0 0,0 0,0 0,0l-4 0 0 4 5 0c0,0 0,0 0,0 0,0 0,0 0,0 0,0 0,1 0,1 0,0 0,0 0,0z"/>
  <path id="11" class="fil0" d="M156 104c0,0 0,1 0,1 0,0 0,0 0,0 0,0 0,0 0,0 0,0 0,0 0,1 0,0 0,0 0,0 -1,0 -1,0 -1,0 -1,0 -1,0 -1,1 -1,0 -1,0 -2,0 -1,0 -2,0 -3,-1 0,0 -1,-1 -2,-1 0,-1 -1,-2 -1,-2 0,-1 0,-2 0,-4 0,-1 0,-2 0,-3 1,-1 1,-2 2,-2 0,-1 1,-1 2,-2 1,0 1,0 2,0 1,0 1,0 2,0 0,0 0,0 1,0 0,0 0,0 0,1 1,0 1,0 1,0 0,0 0,0 0,0 0,0 0,0 0,0 0,1 0,1 0,1 0,0 0,0 0,0 0,1 0,1 0,1 0,0 0,0 0,0 0,0 0,0 0,0 0,1 0,1 0,1 0,0 0,-1 0,-1 -1,0 -1,0 -1,0 0,0 -1,0 -1,-1 0,0 -1,0 -1,0 -1,0 -2,0 -2,1 0,0 -1,0 -1,1 0,0 -1,1 -1,1 0,1 0,2 0,2 0,1 0,2 0,2 0,1 1,2 1,2 0,0 1,1 1,1 1,0 1,0 2,0 0,0 1,0 1,0 0,0 1,0 1,0 0,-1 0,-1 1,-1 0,0 0,0 0,0 0,0 0,0 0,0 0,0 0,0 0,0 0,0 0,0 0,1 0,0 0,0 0,0z"/>
  <path id="12" class="fil0" d="M171 99c0,1 0,2 0,3 0,1 -1,2 -2,3 0,0 -1,1 -2,1 -1,1 -2,1 -3,1 -1,0 -2,0 -3,-1 0,0 -1,0 -2,-1 0,-1 -1,-1 -1,-2 0,-1 0,-2 0,-4 0,-1 0,-2 0,-3 0,-1 1,-2 1,-2 1,-1 2,-1 3,-2 0,0 1,0 3,0 1,0 2,0 2,0 1,1 2,1 3,2 0,0 1,1 1,2 0,1 0,2 0,3zm-3 0c0,-1 0,-1 0,-2 0,0 0,-1 -1,-1 0,-1 0,-1 -1,-1 0,-1 -1,-1 -2,-1 0,0 -1,0 -1,1 -1,0 -1,0 -1,1 -1,0 -1,1 -1,1 0,1 0,2 0,2 0,1 0,2 0,2 0,1 0,1 0,2 1,0 1,1 2,1 0,0 1,0 1,0 1,0 2,0 2,0 1,0 1,-1 1,-1 1,-1 1,-1 1,-2 0,0 0,-1 0,-2z"/>
  <path id="13" class="fil0" d="M184 106c0,0 0,0 0,0 0,0 0,0 0,0 0,0 0,0 0,0 -1,0 -1,1 -1,1 -1,0 -1,-1 -1,-1 0,0 0,0 0,0 -1,0 -1,0 -1,0 0,0 0,0 0,0l-1 -3c0,-1 0,-1 -1,-1 0,0 0,-1 0,-1 0,0 0,0 -1,0 0,0 0,0 0,0l-1 0 0 5c0,0 0,0 0,0 0,0 -1,0 -1,0 0,0 0,0 0,0 0,0 -1,1 -1,1 0,0 0,-1 -1,-1 0,0 0,0 0,0 0,0 0,0 0,0 0,0 0,0 0,0l0 -13c0,0 0,-1 0,-1 0,0 0,0 1,0l3 0c1,0 1,0 1,0 0,0 1,0 1,0 0,0 1,0 1,1 1,0 1,0 2,0 0,1 0,1 0,1 1,1 1,1 1,2 0,0 0,1 -1,1 0,1 0,1 0,1 0,1 -1,1 -1,1 0,0 -1,1 -1,1 0,0 0,0 0,0 1,0 1,0 1,1 0,0 0,0 0,0 1,1 1,1 1,1l1 3c0,0 0,1 0,1 0,0 0,0 0,0zm-3 -10c0,0 0,-1 -1,-1 0,0 0,0 -1,-1 0,0 0,0 0,0 0,0 -1,0 -1,0l-1 0 0 4 1 0c1,0 1,0 1,0 1,0 1,0 1,0 0,0 0,-1 0,-1 1,0 1,0 1,-1z"/>
  <rect class="fil1 str0" x="69" y="40" width="44.2375" height="34.6503"/>
  <polygon class="fil1 str0" points="60,40 91,9 124,40 "/>
  <path class="fil1 str1" d="M132 75l0 3c0,2 -1,3 -3,3l-74 0c-2,0 -3,-1 -3,-3l0 -75c0,-1 1,-3 3,-3l74 0c2,0 3,2 3,3l0 6"/>
  <rect class="fil1 str0" x="82" y="46" width="19.9578" height="29.06"/>
  <path class="fil2 str0" d="M118 75c3,0 6,2 6,6 0,3 -3,5 -6,5l-52 0c-3,0 -6,-2 -6,-5 0,-4 3,-6 6,-6l52 0z"/>
  <rect class="fil3 str2" x="74" y="75" width="2.66937" height="2.66937"/>
  <rect class="fil3 str2" x="90" y="75" width="2.66937" height="2.66937"/>
  <rect class="fil3 str2" x="106" y="75" width="2.66937" height="2.66937"/>
  <polygon class="fil4 str3" points="132,71 135,66 135,66 135,11 129,11 129,66 130,66 "/>
 </g>
</svg>
